<svg width="584" height="452" viewBox="0 0 584 452" fill="none" xmlns="http://www.w3.org/2000/svg">
<rect x="1" y="0.71875" width="580" height="432.364" rx="37.4949" fill="#2F2F2F"/>
<path d="M52.752 54.5443C52.752 56.217 52.4349 57.6401 51.8008 58.8134C51.1716 59.9868 50.3128 60.8831 49.2243 61.5022C48.1408 62.1164 46.9225 62.4235 45.5694 62.4235C44.2062 62.4235 42.9829 62.1139 41.8994 61.4947C40.8159 60.8756 39.9596 59.9793 39.3305 58.8059C38.7013 57.6326 38.3868 56.212 38.3868 54.5443C38.3868 52.8716 38.7013 51.4486 39.3305 50.2752C39.9596 49.1018 40.8159 48.2081 41.8994 47.5939C42.9829 46.9748 44.2062 46.6652 45.5694 46.6652C46.9225 46.6652 48.1408 46.9748 49.2243 47.5939C50.3128 48.2081 51.1716 49.1018 51.8008 50.2752C52.4349 51.4486 52.752 52.8716 52.752 54.5443ZM49.464 54.5443C49.464 53.4608 49.3017 52.5471 48.9772 51.8031C48.6576 51.0591 48.2057 50.4949 47.6215 50.1104C47.0373 49.726 46.3533 49.5337 45.5694 49.5337C44.7854 49.5337 44.1014 49.726 43.5172 50.1104C42.933 50.4949 42.4786 51.0591 42.1541 51.8031C41.8345 52.5471 41.6747 53.4608 41.6747 54.5443C41.6747 55.6278 41.8345 56.5416 42.1541 57.2855C42.4786 58.0295 42.933 58.5937 43.5172 58.9782C44.1014 59.3627 44.7854 59.5549 45.5694 59.5549C46.3533 59.5549 47.0373 59.3627 47.6215 58.9782C48.2057 58.5937 48.6576 58.0295 48.9772 57.2855C49.3017 56.5416 49.464 55.6278 49.464 54.5443ZM62.4717 57.3155V50.7096H65.6623V62.2137H62.599V60.1241H62.4792C62.2195 60.7982 61.7876 61.34 61.1835 61.7494C60.5843 62.1588 59.8528 62.3635 58.989 62.3635C58.22 62.3635 57.5435 62.1888 56.9593 61.8393C56.3751 61.4897 55.9182 60.9929 55.5887 60.3488C55.2641 59.7047 55.0993 58.9333 55.0944 58.0345V50.7096H58.285V57.4653C58.2899 58.1444 58.4722 58.6811 58.8317 59.0756C59.1912 59.47 59.673 59.6673 60.2772 59.6673C60.6617 59.6673 61.0212 59.5799 61.3557 59.4051C61.6903 59.2254 61.9599 58.9607 62.1646 58.6112C62.3743 58.2617 62.4767 57.8298 62.4717 57.3155ZM68.2144 62.2137V50.7096H71.3076V52.7168H71.4274C71.6372 52.0028 71.9892 51.4636 72.4835 51.0991C72.9778 50.7296 73.547 50.5448 74.1911 50.5448C74.3509 50.5448 74.5232 50.5548 74.7079 50.5748C74.8927 50.5948 75.0549 50.6222 75.1948 50.6572V53.4883C75.045 53.4433 74.8377 53.4034 74.5731 53.3684C74.3085 53.3335 74.0663 53.316 73.8466 53.316C73.3773 53.316 72.9578 53.4184 72.5883 53.6231C72.2239 53.8228 71.9343 54.1024 71.7195 54.4619C71.5098 54.8214 71.405 55.2359 71.405 55.7052V62.2137H68.2144ZM81.7857 62.2137V46.8749H87.9272C89.0556 46.8749 89.9968 47.0422 90.7508 47.3767C91.5048 47.7112 92.0715 48.1756 92.4509 48.7698C92.8304 49.359 93.0202 50.038 93.0202 50.807C93.0202 51.4062 92.9003 51.9329 92.6607 52.3873C92.421 52.8367 92.0914 53.2062 91.672 53.4958C91.2576 53.7804 90.7832 53.9826 90.249 54.1024V54.2522C90.8332 54.2772 91.3799 54.442 91.8892 54.7465C92.4035 55.0511 92.8204 55.478 93.14 56.0273C93.4596 56.5715 93.6193 57.2206 93.6193 57.9746C93.6193 58.7885 93.4171 59.515 93.0127 60.1541C92.6132 60.7882 92.0215 61.29 91.2376 61.6595C90.4537 62.029 89.4875 62.2137 88.3391 62.2137H81.7857ZM85.0287 59.5624H87.6725C88.5763 59.5624 89.2354 59.3901 89.6498 59.0456C90.0642 58.6961 90.2715 58.2317 90.2715 57.6525C90.2715 57.2281 90.1691 56.8536 89.9644 56.5291C89.7597 56.2045 89.4676 55.9499 89.0881 55.7651C88.7136 55.5804 88.2667 55.488 87.7474 55.488H85.0287V59.5624ZM85.0287 53.2935H87.4329C87.8773 53.2935 88.2717 53.2162 88.6162 53.0614C88.9658 52.9016 89.2404 52.6769 89.4401 52.3873C89.6448 52.0977 89.7472 51.7507 89.7472 51.3462C89.7472 50.792 89.55 50.3451 89.1555 50.0056C88.766 49.6661 88.2118 49.4963 87.4928 49.4963H85.0287V53.2935ZM103.047 57.3155V50.7096H106.238V62.2137H103.174V60.1241H103.054C102.795 60.7982 102.363 61.34 101.759 61.7494C101.16 62.1588 100.428 62.3635 99.5643 62.3635C98.7953 62.3635 98.1188 62.1888 97.5346 61.8393C96.9504 61.4897 96.4935 60.9929 96.164 60.3488C95.8394 59.7047 95.6746 58.9333 95.6696 58.0345V50.7096H98.8602V57.4653C98.8652 58.1444 99.0475 58.6811 99.407 59.0756C99.7665 59.47 100.248 59.6673 100.852 59.6673C101.237 59.6673 101.596 59.5799 101.931 59.4051C102.266 59.2254 102.535 58.9607 102.74 58.6112C102.95 58.2617 103.052 57.8298 103.047 57.3155ZM118.361 53.9901L115.44 54.1698C115.391 53.9202 115.283 53.6955 115.118 53.4958C114.954 53.2911 114.736 53.1288 114.467 53.0089C114.202 52.8841 113.885 52.8217 113.516 52.8217C113.021 52.8217 112.604 52.9266 112.265 53.1363C111.925 53.341 111.756 53.6156 111.756 53.9601C111.756 54.2348 111.865 54.4669 112.085 54.6567C112.305 54.8464 112.682 54.9987 113.216 55.1135L115.298 55.533C116.417 55.7626 117.25 56.1321 117.8 56.6414C118.349 57.1507 118.624 57.8198 118.624 58.6487C118.624 59.4026 118.401 60.0642 117.957 60.6334C117.518 61.2026 116.913 61.647 116.145 61.9666C115.381 62.2812 114.499 62.4384 113.501 62.4384C111.978 62.4384 110.764 62.1214 109.861 61.4872C108.962 60.8481 108.435 59.9793 108.28 58.8808L111.419 58.7161C111.513 59.1804 111.743 59.5349 112.108 59.7796C112.472 60.0193 112.939 60.1391 113.508 60.1391C114.067 60.1391 114.517 60.0318 114.856 59.8171C115.201 59.5974 115.376 59.3152 115.381 58.9707C115.376 58.6811 115.253 58.4439 115.014 58.2592C114.774 58.0695 114.404 57.9247 113.905 57.8248L111.913 57.4278C110.789 57.2032 109.953 56.8137 109.404 56.2595C108.86 55.7052 108.587 54.9987 108.587 54.1399C108.587 53.4009 108.787 52.7643 109.187 52.23C109.591 51.6958 110.158 51.2838 110.887 50.9942C111.621 50.7046 112.48 50.5598 113.463 50.5598C114.916 50.5598 116.06 50.8669 116.893 51.481C117.732 52.0952 118.222 52.9315 118.361 53.9901ZM120.633 62.2137V50.7096H123.823V62.2137H120.633ZM122.235 49.2267C121.761 49.2267 121.354 49.0694 121.015 48.7548C120.68 48.4353 120.513 48.0533 120.513 47.6089C120.513 47.1695 120.68 46.7925 121.015 46.478C121.354 46.1584 121.761 45.9986 122.235 45.9986C122.71 45.9986 123.114 46.1584 123.449 46.478C123.788 46.7925 123.958 47.1695 123.958 47.6089C123.958 48.0533 123.788 48.4353 123.449 48.7548C123.114 49.0694 122.71 49.2267 122.235 49.2267ZM129.57 55.5629V62.2137H126.379V50.7096H129.42V52.7393H129.555C129.809 52.0702 130.236 51.541 130.836 51.1515C131.435 50.757 132.161 50.5598 133.015 50.5598C133.814 50.5598 134.51 50.7346 135.105 51.0841C135.699 51.4336 136.161 51.9329 136.49 52.582C136.82 53.2261 136.985 53.9951 136.985 54.8888V62.2137H133.794V55.4581C133.799 54.754 133.619 54.2048 133.255 53.8103C132.89 53.4109 132.388 53.2112 131.749 53.2112C131.32 53.2112 130.94 53.3035 130.611 53.4883C130.286 53.673 130.032 53.9427 129.847 54.2972C129.667 54.6467 129.575 55.0686 129.57 55.5629ZM144.742 62.4384C143.559 62.4384 142.54 62.1988 141.686 61.7194C140.837 61.2351 140.183 60.551 139.724 59.6673C139.265 58.7785 139.035 57.7274 139.035 56.5141C139.035 55.3307 139.265 54.2922 139.724 53.3984C140.183 52.5046 140.83 51.8081 141.664 51.3088C142.503 50.8095 143.486 50.5598 144.615 50.5598C145.374 50.5598 146.08 50.6822 146.734 50.9268C147.393 51.1665 147.967 51.5285 148.457 52.0128C148.951 52.4971 149.336 53.1063 149.61 53.8403C149.885 54.5693 150.022 55.4231 150.022 56.4018V57.2781H140.308V55.3008H147.019C147.019 54.8414 146.919 54.4345 146.719 54.08C146.519 53.7255 146.242 53.4483 145.888 53.2486C145.538 53.0439 145.131 52.9415 144.667 52.9415C144.183 52.9415 143.753 53.0539 143.379 53.2786C143.009 53.4983 142.72 53.7954 142.51 54.1698C142.3 54.5393 142.193 54.9513 142.188 55.4056V57.2855C142.188 57.8548 142.293 58.3466 142.503 58.761C142.717 59.1754 143.019 59.495 143.409 59.7197C143.798 59.9444 144.26 60.0567 144.794 60.0567C145.149 60.0567 145.473 60.0068 145.768 59.9069C146.063 59.8071 146.315 59.6573 146.524 59.4575C146.734 59.2578 146.894 59.0132 147.004 58.7236L149.955 58.9183C149.805 59.6273 149.498 60.2465 149.034 60.7757C148.574 61.3 147.98 61.7094 147.251 62.004C146.527 62.2936 145.691 62.4384 144.742 62.4384ZM161.676 53.9901L158.755 54.1698C158.705 53.9202 158.598 53.6955 158.433 53.4958C158.268 53.2911 158.051 53.1288 157.781 53.0089C157.517 52.8841 157.2 52.8217 156.83 52.8217C156.336 52.8217 155.919 52.9266 155.579 53.1363C155.24 53.341 155.07 53.6156 155.07 53.9601C155.07 54.2348 155.18 54.4669 155.4 54.6567C155.619 54.8464 155.996 54.9987 156.531 55.1135L158.613 55.533C159.731 55.7626 160.565 56.1321 161.114 56.6414C161.664 57.1507 161.938 57.8198 161.938 58.6487C161.938 59.4026 161.716 60.0642 161.272 60.6334C160.832 61.2026 160.228 61.647 159.459 61.9666C158.695 62.2812 157.814 62.4384 156.815 62.4384C155.292 62.4384 154.079 62.1214 153.175 61.4872C152.277 60.8481 151.75 59.9793 151.595 58.8808L154.733 58.7161C154.828 59.1804 155.058 59.5349 155.422 59.7796C155.787 60.0193 156.254 60.1391 156.823 60.1391C157.382 60.1391 157.831 60.0318 158.171 59.8171C158.515 59.5974 158.69 59.3152 158.695 58.9707C158.69 58.6811 158.568 58.4439 158.328 58.2592C158.089 58.0695 157.719 57.9247 157.22 57.8248L155.227 57.4278C154.104 57.2032 153.268 56.8137 152.718 56.2595C152.174 55.7052 151.902 54.9987 151.902 54.1399C151.902 53.4009 152.102 52.7643 152.501 52.23C152.906 51.6958 153.472 51.2838 154.201 50.9942C154.935 50.7046 155.794 50.5598 156.778 50.5598C158.231 50.5598 159.374 50.8669 160.208 51.481C161.047 52.0952 161.536 52.9315 161.676 53.9901ZM173.519 53.9901L170.598 54.1698C170.548 53.9202 170.441 53.6955 170.276 53.4958C170.111 53.2911 169.894 53.1288 169.625 53.0089C169.36 52.8841 169.043 52.8217 168.673 52.8217C168.179 52.8217 167.762 52.9266 167.423 53.1363C167.083 53.341 166.913 53.6156 166.913 53.9601C166.913 54.2348 167.023 54.4669 167.243 54.6567C167.462 54.8464 167.839 54.9987 168.374 55.1135L170.456 55.533C171.574 55.7626 172.408 56.1321 172.957 56.6414C173.507 57.1507 173.781 57.8198 173.781 58.6487C173.781 59.4026 173.559 60.0642 173.115 60.6334C172.675 61.2026 172.071 61.647 171.302 61.9666C170.538 62.2812 169.657 62.4384 168.658 62.4384C167.135 62.4384 165.922 62.1214 165.018 61.4872C164.12 60.8481 163.593 59.9793 163.438 58.8808L166.576 58.7161C166.671 59.1804 166.901 59.5349 167.265 59.7796C167.63 60.0193 168.097 60.1391 168.666 60.1391C169.225 60.1391 169.674 60.0318 170.014 59.8171C170.358 59.5974 170.533 59.3152 170.538 58.9707C170.533 58.6811 170.411 58.4439 170.171 58.2592C169.932 58.0695 169.562 57.9247 169.063 57.8248L167.071 57.4278C165.947 57.2032 165.111 56.8137 164.561 56.2595C164.017 55.7052 163.745 54.9987 163.745 54.1399C163.745 53.4009 163.945 52.7643 164.344 52.23C164.749 51.6958 165.315 51.2838 166.044 50.9942C166.778 50.7046 167.637 50.5598 168.621 50.5598C170.074 50.5598 171.217 50.8669 172.051 51.481C172.89 52.0952 173.379 52.9315 173.519 53.9901ZM183.376 62.2137H179.9L185.196 46.8749H189.375L194.662 62.2137H191.187L187.345 50.3801H187.225L183.376 62.2137ZM183.158 56.1846H191.367V58.7161H183.158V56.1846ZM201.111 62.4384C199.933 62.4384 198.919 62.1888 198.07 61.6895C197.226 61.1852 196.577 60.4861 196.123 59.5924C195.674 58.6986 195.449 57.67 195.449 56.5066C195.449 55.3282 195.676 54.2947 196.13 53.4059C196.59 52.5121 197.241 51.8156 198.085 51.3163C198.929 50.812 199.933 50.5598 201.096 50.5598C202.1 50.5598 202.978 50.7421 203.732 51.1066C204.486 51.4711 205.083 51.9829 205.522 52.6419C205.962 53.301 206.204 54.075 206.249 54.9637H203.238C203.153 54.3895 202.929 53.9277 202.564 53.5782C202.205 53.2236 201.733 53.0464 201.149 53.0464C200.654 53.0464 200.222 53.1812 199.853 53.4508C199.488 53.7155 199.204 54.1024 198.999 54.6117C198.794 55.121 198.692 55.7377 198.692 56.4617C198.692 57.1957 198.792 57.8198 198.991 58.3341C199.196 58.8484 199.483 59.2403 199.853 59.51C200.222 59.7796 200.654 59.9144 201.149 59.9144C201.513 59.9144 201.84 59.8395 202.13 59.6897C202.424 59.5399 202.666 59.3227 202.856 59.0381C203.051 58.7485 203.178 58.4015 203.238 57.9971H206.249C206.199 58.8758 205.959 59.6498 205.53 60.3189C205.106 60.9829 204.519 61.5022 203.77 61.8767C203.021 62.2512 202.135 62.4384 201.111 62.4384ZM214.411 50.7096V53.1063H207.483V50.7096H214.411ZM209.056 47.9534H212.246V58.6786C212.246 58.9732 212.291 59.2029 212.381 59.3677C212.471 59.5275 212.596 59.6398 212.756 59.7047C212.92 59.7696 213.11 59.8021 213.325 59.8021C213.475 59.8021 213.624 59.7896 213.774 59.7646C213.924 59.7347 214.039 59.7122 214.119 59.6972L214.621 62.0714C214.461 62.1214 214.236 62.1788 213.946 62.2437C213.657 62.3136 213.305 62.356 212.89 62.371C212.122 62.401 211.447 62.2986 210.868 62.064C210.294 61.8293 209.847 61.4648 209.528 60.9705C209.208 60.4761 209.051 59.852 209.056 59.098V47.9534ZM216.489 62.2137V50.7096H219.68V62.2137H216.489ZM218.092 49.2267C217.618 49.2267 217.211 49.0694 216.871 48.7548C216.537 48.4353 216.369 48.0533 216.369 47.6089C216.369 47.1695 216.537 46.7925 216.871 46.478C217.211 46.1584 217.618 45.9986 218.092 45.9986C218.566 45.9986 218.971 46.1584 219.305 46.478C219.645 46.7925 219.815 47.1695 219.815 47.6089C219.815 48.0533 219.645 48.4353 219.305 48.7548C218.971 49.0694 218.566 49.2267 218.092 49.2267ZM232.961 50.7096L228.939 62.2137H225.344L221.322 50.7096H224.692L227.081 58.9408H227.201L229.583 50.7096H232.961ZM239.466 62.4384C238.282 62.4384 237.264 62.1988 236.41 61.7194C235.561 61.2351 234.907 60.551 234.448 59.6673C233.988 58.7785 233.759 57.7274 233.759 56.5141C233.759 55.3307 233.988 54.2922 234.448 53.3984C234.907 52.5046 235.554 51.8081 236.387 51.3088C237.226 50.8095 238.21 50.5598 239.338 50.5598C240.097 50.5598 240.804 50.6822 241.458 50.9268C242.117 51.1665 242.691 51.5285 243.181 52.0128C243.675 52.4971 244.059 53.1063 244.334 53.8403C244.609 54.5693 244.746 55.4231 244.746 56.4018V57.2781H235.032V55.3008H241.743C241.743 54.8414 241.643 54.4345 241.443 54.08C241.243 53.7255 240.966 53.4483 240.612 53.2486C240.262 53.0439 239.855 52.9415 239.391 52.9415C238.906 52.9415 238.477 53.0539 238.103 53.2786C237.733 53.4983 237.443 53.7954 237.234 54.1698C237.024 54.5393 236.917 54.9513 236.912 55.4056V57.2855C236.912 57.8548 237.017 58.3466 237.226 58.761C237.441 59.1754 237.743 59.495 238.132 59.7197C238.522 59.9444 238.984 60.0567 239.518 60.0567C239.873 60.0567 240.197 60.0068 240.492 59.9069C240.786 59.8071 241.038 59.6573 241.248 59.4575C241.458 59.2578 241.618 59.0132 241.728 58.7236L244.678 58.9183C244.529 59.6273 244.222 60.2465 243.757 60.7757C243.298 61.3 242.704 61.7094 241.975 62.004C241.251 62.2936 240.414 62.4384 239.466 62.4384ZM250.019 46.8749V62.2137H246.828V46.8749H250.019ZM254.544 66.5278C254.14 66.5278 253.76 66.4953 253.406 66.4304C253.056 66.3705 252.767 66.2931 252.537 66.1982L253.256 63.8165C253.63 63.9314 253.968 63.9938 254.267 64.0038C254.572 64.0138 254.834 63.9439 255.054 63.7941C255.278 63.6443 255.46 63.3896 255.6 63.0301L255.788 62.5433L251.661 50.7096H255.016L257.398 59.158H257.518L259.922 50.7096H263.3L258.828 63.457C258.614 64.0762 258.322 64.6154 257.952 65.0748C257.588 65.5392 257.126 65.8962 256.566 66.1458C256.007 66.4005 255.333 66.5278 254.544 66.5278Z" fill="#EFEFEF"/>
<path opacity="0.1" d="M25.1667 278.517C8.00432 280.874 11.6333 282.778 1 287.465V413.163H581V188.611C581 188.611 565.014 219.311 552.483 218.012C533.085 216 541.521 200.661 522.033 201.82C507.543 202.682 505.117 243.331 484.333 242.299C458.079 240.995 468.391 220.785 442.283 218.012C423.949 216.064 424.494 186.477 406.033 186.054C377.514 185.402 373.501 161.212 349 159.211C291.176 154.487 344.13 78.5351 286.167 81.6611C229.605 84.7116 292.743 207.019 236.383 201.82C222.189 200.511 216.204 189.021 202.067 190.742C184.606 192.867 186.048 213.447 169.2 218.012C147.176 223.978 135.651 197.519 113.133 201.82C91.5626 205.94 92.6712 234.576 70.6 234.629C40.877 234.702 54.5354 274.483 25.1667 278.517Z" fill="url(#paint0_linear_213_240)"/>
<path opacity="0.3" d="M366.576 93.2844C366.576 80.342 377.068 69.8501 390.01 69.8501H436.879C449.821 69.8501 460.313 80.342 460.313 93.2844V433.082H366.576V93.2844Z" fill="url(#paint1_linear_213_240)"/>
<path opacity="0.8" d="M3.34326 290.133C13.9336 285.385 10.3193 283.457 27.4123 281.069C56.6624 276.983 43.0591 236.686 72.662 236.613C94.644 236.558 93.5399 207.552 115.024 203.378C137.45 199.021 148.929 225.824 170.864 219.78C187.644 215.156 186.208 194.309 203.598 192.156C217.678 190.413 223.639 202.052 237.776 203.378C293.908 208.645 231.024 84.7523 287.358 81.6624C345.087 78.4958 292.347 155.431 349.937 160.217C374.339 162.244 378.336 186.748 406.74 187.408C425.126 187.836 424.583 217.806 442.844 219.78C468.846 222.589 458.575 243.061 484.724 244.382C505.423 245.427 507.84 204.251 522.271 203.378C541.68 202.204 533.278 217.742 552.598 219.78C565.078 221.096 581 189.998 581 189.998" stroke="url(#paint2_linear_213_240)" stroke-width="5.85859" stroke-linecap="round"/>
<g filter="url(#filter0_d_213_240)">
<circle cx="413.444" cy="191.709" r="29.2929" fill="url(#paint3_linear_213_240)"/>
<circle cx="413.444" cy="191.709" r="25.7778" stroke="white" stroke-width="7.0303"/>
</g>
<path opacity="0.5" d="M27.656 399.503H28.8943V406.813C28.8943 407.465 28.7744 408.019 28.5348 408.475C28.2951 408.932 27.9572 409.278 27.5212 409.514C27.0851 409.75 26.5708 409.869 25.9783 409.869C25.4191 409.869 24.9214 409.767 24.4853 409.564C24.0493 409.358 23.7064 409.065 23.4568 408.685C23.2071 408.306 23.0823 407.855 23.0823 407.332H24.3006C24.3006 407.622 24.3722 407.875 24.5153 408.091C24.6618 408.304 24.8615 408.47 25.1145 408.59C25.3675 408.71 25.6554 408.77 25.9783 408.77C26.3345 408.77 26.6374 408.695 26.887 408.545C27.1367 408.396 27.3264 408.176 27.4563 407.886C27.5894 407.593 27.656 407.236 27.656 406.813V399.503ZM33.473 409.909C32.987 409.909 32.5459 409.817 32.1498 409.634C31.7537 409.447 31.4391 409.18 31.2061 408.83C30.9731 408.477 30.8566 408.051 30.8566 407.552C30.8566 407.112 30.9431 406.756 31.1162 406.483C31.2893 406.207 31.5206 405.991 31.8102 405.834C32.0998 405.678 32.4194 405.561 32.7689 405.485C33.1218 405.405 33.4763 405.341 33.8325 405.295C34.2985 405.235 34.6763 405.19 34.9659 405.16C35.2588 405.127 35.4719 405.072 35.605 404.995C35.7415 404.919 35.8097 404.786 35.8097 404.596V404.556C35.8097 404.063 35.6749 403.68 35.4053 403.407C35.139 403.135 34.7345 402.998 34.192 402.998C33.6294 402.998 33.1883 403.121 32.8688 403.368C32.5492 403.614 32.3245 403.877 32.1947 404.156L31.0763 403.757C31.276 403.291 31.5423 402.928 31.8752 402.668C32.2114 402.406 32.5775 402.222 32.9736 402.119C33.3731 402.013 33.7659 401.959 34.152 401.959C34.3983 401.959 34.6813 401.989 35.0008 402.049C35.3237 402.106 35.635 402.224 35.9346 402.404C36.2375 402.584 36.4888 402.855 36.6885 403.218C36.8882 403.581 36.9881 404.067 36.9881 404.676V409.729H35.8097V408.69H35.7498C35.6699 408.857 35.5368 409.035 35.3504 409.224C35.164 409.414 34.916 409.576 34.6064 409.709C34.2968 409.842 33.919 409.909 33.473 409.909ZM33.6527 408.85C34.1187 408.85 34.5115 408.758 34.8311 408.575C35.154 408.392 35.397 408.156 35.5601 407.866C35.7265 407.577 35.8097 407.272 35.8097 406.953V405.874C35.7598 405.934 35.6499 405.989 35.4802 406.039C35.3137 406.085 35.1207 406.127 34.901 406.164C34.6846 406.197 34.4732 406.227 34.2669 406.254C34.0638 406.277 33.899 406.297 33.7725 406.313C33.4663 406.353 33.18 406.418 32.9137 406.508C32.6508 406.595 32.4377 406.726 32.2746 406.903C32.1148 407.076 32.0349 407.312 32.0349 407.612C32.0349 408.021 32.1864 408.331 32.4893 408.54C32.7956 408.747 33.1834 408.85 33.6527 408.85ZM40.3173 405.115V409.729H39.1389V402.059H40.2773V403.258H40.3772C40.5569 402.868 40.8299 402.555 41.1961 402.319C41.5622 402.079 42.0349 401.959 42.6141 401.959C43.1334 401.959 43.5878 402.066 43.9772 402.279C44.3667 402.489 44.6696 402.808 44.886 403.238C45.1023 403.664 45.2105 404.203 45.2105 404.855V409.729H44.0321V404.935C44.0321 404.333 43.8757 403.864 43.5628 403.527C43.2499 403.188 42.8205 403.018 42.2746 403.018C41.8984 403.018 41.5622 403.1 41.266 403.263C40.973 403.426 40.7417 403.664 40.5719 403.977C40.4021 404.29 40.3173 404.669 40.3173 405.115Z" fill="#EFEFEF"/>
<g filter="url(#filter1_d_213_240)">
<rect x="385.323" y="380.84" width="58.5859" height="35.1515" rx="17.5758" fill="#CEF369"/>
</g>
<path d="M401.862 393.644H403.34L406.816 402.133H406.935L410.411 393.644H411.889V403.87H410.73V396.101H410.63L407.435 403.87H406.316L403.121 396.101H403.021V403.87H401.862V393.644ZM416.469 404.05C415.983 404.05 415.542 403.959 415.145 403.775C414.749 403.589 414.435 403.321 414.202 402.972C413.969 402.619 413.852 402.193 413.852 401.693C413.852 401.254 413.939 400.898 414.112 400.625C414.285 400.349 414.516 400.132 414.806 399.976C415.095 399.819 415.415 399.703 415.765 399.626C416.117 399.546 416.472 399.483 416.828 399.436C417.294 399.377 417.672 399.332 417.961 399.302C418.254 399.268 418.467 399.213 418.601 399.137C418.737 399.06 418.805 398.927 418.805 398.737V398.697C418.805 398.205 418.671 397.822 418.401 397.549C418.135 397.276 417.73 397.14 417.188 397.14C416.625 397.14 416.184 397.263 415.864 397.509C415.545 397.755 415.32 398.018 415.19 398.298L414.072 397.899C414.272 397.433 414.538 397.07 414.871 396.81C415.207 396.547 415.573 396.364 415.969 396.261C416.369 396.154 416.761 396.101 417.148 396.101C417.394 396.101 417.677 396.131 417.996 396.191C418.319 396.248 418.631 396.366 418.93 396.545C419.233 396.725 419.484 396.997 419.684 397.359C419.884 397.722 419.984 398.208 419.984 398.817V403.87H418.805V402.832H418.745C418.666 402.998 418.532 403.176 418.346 403.366C418.16 403.556 417.912 403.717 417.602 403.85C417.292 403.984 416.915 404.05 416.469 404.05ZM416.648 402.992C417.114 402.992 417.507 402.9 417.827 402.717C418.15 402.534 418.393 402.298 418.556 402.008C418.722 401.718 418.805 401.414 418.805 401.094V400.016C418.755 400.076 418.646 400.131 418.476 400.18C418.309 400.227 418.116 400.269 417.897 400.305C417.68 400.339 417.469 400.369 417.262 400.395C417.059 400.418 416.895 400.438 416.768 400.455C416.462 400.495 416.176 400.56 415.909 400.65C415.646 400.736 415.433 400.868 415.27 401.044C415.11 401.217 415.031 401.454 415.031 401.753C415.031 402.163 415.182 402.472 415.485 402.682C415.791 402.888 416.179 402.992 416.648 402.992ZM422.619 406.746C422.419 406.746 422.241 406.73 422.085 406.696C421.928 406.667 421.82 406.637 421.76 406.607L422.06 405.568C422.346 405.641 422.599 405.668 422.819 405.648C423.038 405.628 423.233 405.53 423.403 405.353C423.576 405.18 423.734 404.899 423.877 404.509L424.097 403.91L421.261 396.201H422.539L424.656 402.313H424.736L426.853 396.201H428.131L424.876 404.989C424.729 405.385 424.548 405.713 424.331 405.972C424.115 406.235 423.864 406.43 423.578 406.557C423.295 406.683 422.975 406.746 422.619 406.746Z" fill="#2E2E2E"/>
<path opacity="0.5" d="M114.137 408.557V398.331H120.269V399.43H115.376V402.885H119.81V403.983H115.376V408.557H114.137ZM124.883 408.717C124.144 408.717 123.506 408.554 122.97 408.228C122.438 407.898 122.027 407.439 121.737 406.849C121.451 406.257 121.308 405.568 121.308 404.782C121.308 403.997 121.451 403.304 121.737 402.705C122.027 402.103 122.429 401.633 122.945 401.297C123.465 400.958 124.07 400.788 124.763 400.788C125.162 400.788 125.557 400.854 125.946 400.988C126.336 401.121 126.69 401.337 127.01 401.637C127.329 401.933 127.584 402.326 127.774 402.815C127.963 403.304 128.058 403.907 128.058 404.623V405.122H122.146V404.103H126.86C126.86 403.671 126.773 403.284 126.6 402.945C126.431 402.605 126.188 402.337 125.871 402.141C125.558 401.945 125.189 401.846 124.763 401.846C124.293 401.846 123.887 401.963 123.544 402.196C123.205 402.426 122.944 402.725 122.761 403.095C122.577 403.464 122.486 403.86 122.486 404.283V404.962C122.486 405.541 122.586 406.032 122.786 406.435C122.989 406.835 123.27 407.139 123.629 407.349C123.989 407.555 124.407 407.658 124.883 407.658C125.192 407.658 125.472 407.615 125.721 407.529C125.974 407.439 126.193 407.306 126.376 407.129C126.559 406.949 126.7 406.726 126.8 406.46L127.938 406.78C127.819 407.166 127.617 407.505 127.334 407.798C127.051 408.088 126.702 408.314 126.286 408.477C125.87 408.637 125.402 408.717 124.883 408.717ZM130.011 408.557V398.331H131.189V402.106H131.289C131.375 401.973 131.495 401.803 131.648 401.597C131.805 401.387 132.028 401.201 132.317 401.038C132.61 400.871 133.006 400.788 133.506 400.788C134.152 400.788 134.721 400.949 135.213 401.272C135.706 401.595 136.091 402.053 136.367 402.645C136.643 403.238 136.781 403.937 136.781 404.742C136.781 405.555 136.643 406.259 136.367 406.854C136.091 407.447 135.708 407.906 135.218 408.233C134.729 408.555 134.165 408.717 133.526 408.717C133.033 408.717 132.639 408.635 132.342 408.472C132.046 408.306 131.818 408.118 131.658 407.908C131.499 407.695 131.375 407.519 131.289 407.379H131.149V408.557H130.011ZM131.169 404.722C131.169 405.302 131.254 405.813 131.424 406.255C131.593 406.695 131.841 407.039 132.168 407.289C132.494 407.535 132.893 407.658 133.366 407.658C133.859 407.658 134.27 407.529 134.599 407.269C134.932 407.006 135.182 406.653 135.348 406.21C135.518 405.764 135.603 405.268 135.603 404.722C135.603 404.183 135.52 403.697 135.353 403.264C135.19 402.828 134.942 402.484 134.609 402.231C134.28 401.975 133.865 401.846 133.366 401.846C132.887 401.846 132.484 401.968 132.158 402.211C131.831 402.451 131.585 402.787 131.419 403.219C131.252 403.649 131.169 404.15 131.169 404.722Z" fill="#EFEFEF"/>
<path opacity="0.5" d="M205.589 397.159H207.067L210.542 405.648H210.662L214.137 397.159H215.615V407.385H214.457V399.616H214.357L211.162 407.385H210.043L206.847 399.616H206.748V407.385H205.589V397.159ZM220.195 407.565C219.709 407.565 219.268 407.473 218.872 407.29C218.476 407.104 218.161 406.836 217.928 406.486C217.695 406.134 217.579 405.708 217.579 405.208C217.579 404.769 217.665 404.413 217.839 404.14C218.012 403.863 218.243 403.647 218.533 403.491C218.822 403.334 219.142 403.218 219.491 403.141C219.844 403.061 220.199 402.998 220.555 402.951C221.021 402.891 221.399 402.847 221.688 402.817C221.981 402.783 222.194 402.728 222.327 402.652C222.464 402.575 222.532 402.442 222.532 402.252V402.212C222.532 401.72 222.397 401.337 222.128 401.064C221.861 400.791 221.457 400.655 220.914 400.655C220.352 400.655 219.911 400.778 219.591 401.024C219.272 401.27 219.047 401.533 218.917 401.813L217.799 401.413C217.998 400.947 218.265 400.585 218.598 400.325C218.934 400.062 219.3 399.879 219.696 399.776C220.095 399.669 220.488 399.616 220.874 399.616C221.121 399.616 221.404 399.646 221.723 399.706C222.046 399.762 222.357 399.881 222.657 400.06C222.96 400.24 223.211 400.511 223.411 400.874C223.611 401.237 223.71 401.723 223.71 402.332V407.385H222.532V406.347H222.472C222.392 406.513 222.259 406.691 222.073 406.881C221.886 407.071 221.638 407.232 221.329 407.365C221.019 407.498 220.641 407.565 220.195 407.565ZM220.375 406.506C220.841 406.506 221.234 406.415 221.553 406.232C221.876 406.049 222.119 405.812 222.282 405.523C222.449 405.233 222.532 404.929 222.532 404.609V403.531C222.482 403.59 222.372 403.645 222.203 403.695C222.036 403.742 221.843 403.784 221.623 403.82C221.407 403.853 221.196 403.883 220.989 403.91C220.786 403.933 220.621 403.953 220.495 403.97C220.189 404.01 219.902 404.075 219.636 404.165C219.373 404.251 219.16 404.383 218.997 404.559C218.837 404.732 218.757 404.969 218.757 405.268C218.757 405.678 218.909 405.987 219.212 406.197C219.518 406.403 219.906 406.506 220.375 406.506ZM225.861 407.385V399.716H227V400.874H227.08C227.219 400.495 227.472 400.187 227.839 399.951C228.205 399.714 228.617 399.596 229.077 399.596C229.163 399.596 229.272 399.598 229.401 399.601C229.531 399.604 229.629 399.609 229.696 399.616V400.814C229.656 400.804 229.564 400.789 229.421 400.769C229.282 400.746 229.133 400.734 228.977 400.734C228.604 400.734 228.271 400.813 227.978 400.969C227.689 401.122 227.459 401.335 227.289 401.608C227.123 401.878 227.04 402.186 227.04 402.532V407.385H225.861Z" fill="#EFEFEF"/>
<path opacity="0.5" d="M514.381 395.988H515.62V403.298C515.62 403.95 515.5 404.504 515.26 404.96C515.021 405.416 514.683 405.763 514.247 405.999C513.811 406.235 513.296 406.353 512.704 406.353C512.145 406.353 511.647 406.252 511.211 406.049C510.775 405.842 510.432 405.55 510.182 405.17C509.933 404.791 509.808 404.34 509.808 403.817H511.026C511.026 404.107 511.098 404.36 511.241 404.576C511.387 404.789 511.587 404.955 511.84 405.075C512.093 405.195 512.381 405.255 512.704 405.255C513.06 405.255 513.363 405.18 513.612 405.03C513.862 404.88 514.052 404.661 514.182 404.371C514.315 404.078 514.381 403.72 514.381 403.298V395.988ZM522.775 403.078V398.544H523.953V406.214H522.775V404.915H522.695C522.515 405.305 522.236 405.636 521.856 405.909C521.477 406.179 520.997 406.313 520.418 406.313C519.939 406.313 519.513 406.209 519.14 405.999C518.767 405.786 518.474 405.466 518.261 405.04C518.048 404.611 517.942 404.07 517.942 403.417V398.544H519.12V403.338C519.12 403.897 519.276 404.343 519.589 404.676C519.905 405.009 520.308 405.175 520.798 405.175C521.091 405.175 521.388 405.1 521.691 404.95C521.998 404.801 522.254 404.571 522.46 404.261C522.67 403.952 522.775 403.557 522.775 403.078ZM527.29 401.6V406.214H526.112V398.544H527.25V399.743H527.35C527.53 399.353 527.803 399.04 528.169 398.804C528.535 398.564 529.008 398.444 529.587 398.444C530.106 398.444 530.56 398.551 530.95 398.764C531.339 398.974 531.642 399.293 531.859 399.723C532.075 400.149 532.183 400.688 532.183 401.34V406.214H531.005V401.42C531.005 400.818 530.848 400.348 530.535 400.012C530.223 399.673 529.793 399.503 529.247 399.503C528.871 399.503 528.535 399.584 528.239 399.748C527.946 399.911 527.714 400.149 527.545 400.462C527.375 400.774 527.29 401.154 527.29 401.6Z" fill="#EFEFEF"/>
<path opacity="0.5" d="M298.583 405.042H297.285L301.04 394.816H302.318L306.073 405.042H304.775L301.719 396.434H301.639L298.583 405.042ZM299.063 401.048H304.295V402.146H299.063V401.048ZM307.506 407.918V397.373H308.644V398.591H308.784C308.871 398.458 308.991 398.288 309.144 398.082C309.3 397.872 309.523 397.685 309.813 397.522C310.106 397.356 310.502 397.273 311.001 397.273C311.647 397.273 312.216 397.434 312.709 397.757C313.201 398.08 313.586 398.538 313.862 399.13C314.138 399.723 314.277 400.422 314.277 401.227C314.277 402.039 314.138 402.743 313.862 403.339C313.586 403.932 313.203 404.391 312.714 404.717C312.224 405.04 311.66 405.202 311.021 405.202C310.528 405.202 310.134 405.12 309.838 404.957C309.541 404.791 309.313 404.603 309.154 404.393C308.994 404.18 308.871 404.003 308.784 403.864H308.684V407.918H307.506ZM308.664 401.207C308.664 401.786 308.749 402.297 308.919 402.74C309.089 403.18 309.337 403.524 309.663 403.774C309.989 404.02 310.389 404.143 310.861 404.143C311.354 404.143 311.765 404.013 312.095 403.754C312.427 403.491 312.677 403.138 312.844 402.695C313.013 402.249 313.098 401.753 313.098 401.207C313.098 400.668 313.015 400.182 312.849 399.749C312.685 399.313 312.437 398.969 312.105 398.716C311.775 398.459 311.361 398.331 310.861 398.331C310.382 398.331 309.979 398.453 309.653 398.696C309.327 398.935 309.08 399.272 308.914 399.704C308.748 400.134 308.664 400.635 308.664 401.207ZM316.074 405.042V397.373H317.213V398.531H317.292C317.432 398.151 317.685 397.844 318.051 397.607C318.418 397.371 318.83 397.253 319.29 397.253C319.376 397.253 319.484 397.254 319.614 397.258C319.744 397.261 319.842 397.266 319.909 397.273V398.471C319.869 398.461 319.777 398.446 319.634 398.426C319.494 398.403 319.346 398.391 319.19 398.391C318.817 398.391 318.484 398.469 318.191 398.626C317.902 398.779 317.672 398.992 317.502 399.265C317.336 399.535 317.252 399.842 317.252 400.189V405.042H316.074Z" fill="#EFEFEF"/>
<defs>
<filter id="filter0_d_213_240" x="354.858" y="138.981" width="117.172" height="117.172" filterUnits="userSpaceOnUse" color-interpolation-filters="sRGB">
<feFlood flood-opacity="0" result="BackgroundImageFix"/>
<feColorMatrix in="SourceAlpha" type="matrix" values="0 0 0 0 0 0 0 0 0 0 0 0 0 0 0 0 0 0 127 0" result="hardAlpha"/>
<feOffset dy="5.85859"/>
<feGaussianBlur stdDeviation="14.6465"/>
<feColorMatrix type="matrix" values="0 0 0 0 0 0 0 0 0 0 0 0 0 0 0 0 0 0 0.1 0"/>
<feBlend mode="normal" in2="BackgroundImageFix" result="effect1_dropShadow_213_240"/>
<feBlend mode="normal" in="SourceGraphic" in2="effect1_dropShadow_213_240" result="shape"/>
</filter>
<filter id="filter1_d_213_240" x="356.03" y="357.406" width="117.172" height="93.7375" filterUnits="userSpaceOnUse" color-interpolation-filters="sRGB">
<feFlood flood-opacity="0" result="BackgroundImageFix"/>
<feColorMatrix in="SourceAlpha" type="matrix" values="0 0 0 0 0 0 0 0 0 0 0 0 0 0 0 0 0 0 127 0" result="hardAlpha"/>
<feOffset dy="5.85859"/>
<feGaussianBlur stdDeviation="14.6465"/>
<feColorMatrix type="matrix" values="0 0 0 0 0 0 0 0 0 0 0 0 0 0 0 0 0 0 0.1 0"/>
<feBlend mode="normal" in2="BackgroundImageFix" result="effect1_dropShadow_213_240"/>
<feBlend mode="normal" in="SourceGraphic" in2="effect1_dropShadow_213_240" result="shape"/>
</filter>
<linearGradient id="paint0_linear_213_240" x1="291" y1="81.5673" x2="291" y2="413.163" gradientUnits="userSpaceOnUse">
<stop stop-color="#EFEFEF"/>
<stop offset="1" stop-color="#2F2F2F"/>
</linearGradient>
<linearGradient id="paint1_linear_213_240" x1="413.444" y1="69.8501" x2="413.444" y2="433.082" gradientUnits="userSpaceOnUse">
<stop stop-color="#CEF369" stop-opacity="0"/>
<stop offset="1" stop-color="#CEF369"/>
</linearGradient>
<linearGradient id="paint2_linear_213_240" x1="292.172" y1="81.5673" x2="292.172" y2="290.133" gradientUnits="userSpaceOnUse">
<stop stop-color="#B5DC4C"/>
<stop offset="1" stop-color="#CEF369"/>
</linearGradient>
<linearGradient id="paint3_linear_213_240" x1="413.444" y1="162.416" x2="413.444" y2="221.002" gradientUnits="userSpaceOnUse">
<stop stop-color="#BFE558"/>
<stop offset="1" stop-color="#BBFF00"/>
</linearGradient>
</defs>
</svg>
