<svg width="25" height="24" viewBox="0 0 25 24" fill="none" xmlns="http://www.w3.org/2000/svg">
<path d="M24.5312 12C24.5312 5.37258 19.1587 0 12.5312 0C5.90383 0 0.53125 5.37258 0.53125 12C0.53125 17.9895 4.91945 22.954 10.6562 23.8542V15.4688H7.60938V12H10.6562V9.35625C10.6562 6.34875 12.4478 4.6875 15.1888 4.6875C16.5013 4.6875 17.875 4.92188 17.875 4.92188V7.875H16.3619C14.8713 7.875 14.4062 8.80008 14.4062 9.75V12H17.7344L17.2023 15.4688H14.4062V23.8542C20.143 22.954 24.5312 17.9895 24.5312 12Z" fill="#1877F2"/>
<path d="M17.2023 15.4688L17.7344 12H14.4062V9.75C14.4062 8.80102 14.8713 7.875 16.3619 7.875H17.875V4.92188C17.875 4.92188 16.5018 4.6875 15.1888 4.6875C12.4478 4.6875 10.6562 6.34875 10.6562 9.35625V12H7.60938V15.4688H10.6562V23.8542C11.8987 24.0486 13.1638 24.0486 14.4062 23.8542V15.4688H17.2023Z" fill="white"/>
</svg>
