<svg width="1931" height="801" viewBox="0 0 1931 801" fill="none" xmlns="http://www.w3.org/2000/svg">
<circle cx="1690" cy="418" r="233" fill="url(#paint0_radial_197_359)"/>
<line x1="10.7251" y1="20.5" x2="544.725" y2="20.5" stroke="url(#paint1_linear_197_359)" stroke-opacity="0.24"/>
<line x1="10.7251" y1="151.5" x2="544.725" y2="151.5" stroke="url(#paint2_linear_197_359)" stroke-opacity="0.24"/>
<line x1="10.7251" y1="281.5" x2="544.725" y2="281.5" stroke="url(#paint3_linear_197_359)" stroke-opacity="0.24"/>
<line x1="10.7251" y1="408.5" x2="544.725" y2="408.5" stroke="url(#paint4_linear_197_359)" stroke-opacity="0.24"/>
<line x1="10.7251" y1="538.5" x2="544.725" y2="538.5" stroke="url(#paint5_linear_197_359)" stroke-opacity="0.24"/>
<line x1="10.7251" y1="669.5" x2="544.725" y2="669.5" stroke="url(#paint6_linear_197_359)" stroke-opacity="0.24"/>
<line x1="10.7251" y1="800.5" x2="544.725" y2="800.5" stroke="url(#paint7_linear_197_359)" stroke-opacity="0.24"/>
<line x1="545.225" y1="3.05368e-05" x2="545.225" y2="801" stroke="url(#paint8_linear_197_359)" stroke-opacity="0.24"/>
<line x1="437.225" y1="3.05368e-05" x2="437.225" y2="801" stroke="url(#paint9_linear_197_359)" stroke-opacity="0.24"/>
<line x1="330.225" y1="3.05368e-05" x2="330.225" y2="801" stroke="url(#paint10_linear_197_359)" stroke-opacity="0.24"/>
<line x1="222.225" y1="3.05368e-05" x2="222.225" y2="801" stroke="url(#paint11_linear_197_359)" stroke-opacity="0.24"/>
<line x1="119.225" y1="3.05368e-05" x2="119.225" y2="801" stroke="url(#paint12_linear_197_359)" stroke-opacity="0.24"/>
<line x1="11.2251" y1="3.05368e-05" x2="11.2251" y2="801" stroke="url(#paint13_linear_197_359)" stroke-opacity="0.24"/>
<line x1="544.237" y1="20.2656" x2="1399.75" y2="20.2656" stroke="url(#paint14_linear_197_359)" stroke-opacity="0.24"/>
<line x1="544.237" y1="151.031" x2="1399.75" y2="151.031" stroke="url(#paint15_linear_197_359)" stroke-opacity="0.24"/>
<line x1="544.237" y1="281.797" x2="1399.75" y2="281.797" stroke="url(#paint16_linear_197_359)" stroke-opacity="0.24"/>
<line x1="544.237" y1="408.203" x2="1399.75" y2="408.203" stroke="url(#paint17_linear_197_359)" stroke-opacity="0.24"/>
<line x1="544.237" y1="538.969" x2="1399.75" y2="538.969" stroke="url(#paint18_linear_197_359)" stroke-opacity="0.24"/>
<line x1="544.237" y1="669.734" x2="1399.75" y2="669.734" stroke="url(#paint19_linear_197_359)" stroke-opacity="0.24"/>
<line x1="544.237" y1="800.5" x2="1399.75" y2="800.5" stroke="url(#paint20_linear_197_359)" stroke-opacity="0.24"/>
<line x1="1400.23" y1="-6.10159e-05" x2="1400.23" y2="801" stroke="url(#paint21_linear_197_359)" stroke-opacity="0.24"/>
<line x1="1293.23" y1="-6.10159e-05" x2="1293.23" y2="801" stroke="url(#paint22_linear_197_359)" stroke-opacity="0.24"/>
<line x1="1185.23" y1="-6.10159e-05" x2="1185.23" y2="801" stroke="url(#paint23_linear_197_359)" stroke-opacity="0.24"/>
<line x1="1078.23" y1="-6.10159e-05" x2="1078.23" y2="801" stroke="url(#paint24_linear_197_359)" stroke-opacity="0.24"/>
<line x1="974.225" y1="-3.04984e-05" x2="974.225" y2="801" stroke="url(#paint25_linear_197_359)" stroke-opacity="0.24"/>
<line x1="867.225" y1="-3.04984e-05" x2="867.225" y2="801" stroke="url(#paint26_linear_197_359)" stroke-opacity="0.24"/>
<line x1="759.225" y1="-3.04984e-05" x2="759.225" y2="801" stroke="url(#paint27_linear_197_359)" stroke-opacity="0.24"/>
<line x1="652.225" y1="-3.04984e-05" x2="652.225" y2="801" stroke="url(#paint28_linear_197_359)" stroke-opacity="0.24"/>
<line x1="1399.73" y1="20.5" x2="1930.73" y2="20.5" stroke="url(#paint29_linear_197_359)" stroke-opacity="0.24"/>
<line x1="1399.73" y1="151.5" x2="1930.73" y2="151.5" stroke="url(#paint30_linear_197_359)" stroke-opacity="0.24"/>
<line x1="1399.73" y1="281.5" x2="1930.73" y2="281.5" stroke="url(#paint31_linear_197_359)" stroke-opacity="0.24"/>
<line x1="1399.73" y1="408.5" x2="1930.73" y2="408.5" stroke="url(#paint32_linear_197_359)" stroke-opacity="0.24"/>
<line x1="1399.73" y1="538.5" x2="1930.73" y2="538.5" stroke="url(#paint33_linear_197_359)" stroke-opacity="0.24"/>
<line x1="1399.73" y1="669.5" x2="1930.73" y2="669.5" stroke="url(#paint34_linear_197_359)" stroke-opacity="0.24"/>
<line x1="1399.73" y1="800.5" x2="1930.73" y2="800.5" stroke="url(#paint35_linear_197_359)" stroke-opacity="0.24"/>
<line x1="1830.23" y1="1.92167e-08" x2="1830.23" y2="801" stroke="url(#paint36_linear_197_359)" stroke-opacity="0.24"/>
<line x1="1722.23" y1="1.92167e-08" x2="1722.23" y2="801" stroke="url(#paint37_linear_197_359)" stroke-opacity="0.24"/>
<line x1="1615.23" y1="1.92167e-08" x2="1615.23" y2="801" stroke="url(#paint38_linear_197_359)" stroke-opacity="0.24"/>
<line x1="1507.23" y1="1.92167e-08" x2="1507.23" y2="801" stroke="url(#paint39_linear_197_359)" stroke-opacity="0.24"/>
<rect x="10.8862" y="282.643" width="107.387" height="125.715" fill="#F1F1F1" fill-opacity="0.8"/>
<rect x="222.081" y="20.8809" width="107.387" height="130.881" fill="#F1F1F1" fill-opacity="0.8"/>
<rect x="436.854" y="282.643" width="107.387" height="125.715" fill="#F1F1F1" fill-opacity="0.8"/>
<rect x="866.403" y="151.762" width="107.387" height="129.159" fill="#F1F1F1" fill-opacity="0.8"/>
<rect x="1184.98" y="151.762" width="107.387" height="129.159" fill="#F1F1F1" fill-opacity="0.8"/>
<rect x="1401.73" width="107" height="21" fill="#F1F1F1" fill-opacity="0.8"/>
<rect x="1721.92" y="406.635" width="107.387" height="132.603" fill="#F1F1F1" fill-opacity="0.8"/>
<rect x="1077.6" y="539.238" width="107.387" height="130.881" fill="#F1F1F1" fill-opacity="0.8"/>
<rect x="436.854" y="670.119" width="107.387" height="130.881" fill="#F1F1F1" fill-opacity="0.8"/>
<path d="M373.973 329.135C331.712 191.716 107.049 133.12 0 121V736C46.9562 524.731 426.798 500.908 373.973 329.135Z" fill="url(#paint40_linear_197_359)"/>
<circle cx="1438" cy="562" r="38.8" fill="#EFEFEF" stroke="#C7C7C7" stroke-width="0.4"/>
<circle cx="1438" cy="562" r="5.8" fill="#939393" stroke="#C7C7C7" stroke-width="0.4"/>
<defs>
<radialGradient id="paint0_radial_197_359" cx="0" cy="0" r="1" gradientUnits="userSpaceOnUse" gradientTransform="translate(1690 418) rotate(90) scale(233)">
<stop stop-color="#F1F0F3"/>
<stop offset="1" stop-color="#F4F5F6"/>
</radialGradient>
<linearGradient id="paint1_linear_197_359" x1="277.725" y1="21" x2="277.725" y2="22" gradientUnits="userSpaceOnUse">
<stop stop-color="#CFCFCF"/>
<stop offset="1" stop-color="#F8F8F8"/>
</linearGradient>
<linearGradient id="paint2_linear_197_359" x1="277.725" y1="152" x2="277.725" y2="153" gradientUnits="userSpaceOnUse">
<stop stop-color="#CFCFCF"/>
<stop offset="1" stop-color="#F8F8F8"/>
</linearGradient>
<linearGradient id="paint3_linear_197_359" x1="277.725" y1="282" x2="277.725" y2="283" gradientUnits="userSpaceOnUse">
<stop stop-color="#CFCFCF"/>
<stop offset="1" stop-color="#F8F8F8"/>
</linearGradient>
<linearGradient id="paint4_linear_197_359" x1="277.725" y1="409" x2="277.725" y2="410" gradientUnits="userSpaceOnUse">
<stop stop-color="#CFCFCF"/>
<stop offset="1" stop-color="#F8F8F8"/>
</linearGradient>
<linearGradient id="paint5_linear_197_359" x1="277.725" y1="539" x2="277.725" y2="540" gradientUnits="userSpaceOnUse">
<stop stop-color="#CFCFCF"/>
<stop offset="1" stop-color="#F8F8F8"/>
</linearGradient>
<linearGradient id="paint6_linear_197_359" x1="277.725" y1="670" x2="277.725" y2="671" gradientUnits="userSpaceOnUse">
<stop stop-color="#CFCFCF"/>
<stop offset="1" stop-color="#F8F8F8"/>
</linearGradient>
<linearGradient id="paint7_linear_197_359" x1="277.725" y1="801" x2="277.725" y2="802" gradientUnits="userSpaceOnUse">
<stop stop-color="#CFCFCF"/>
<stop offset="1" stop-color="#F8F8F8"/>
</linearGradient>
<linearGradient id="paint8_linear_197_359" x1="544.725" y1="400.5" x2="543.725" y2="400.5" gradientUnits="userSpaceOnUse">
<stop stop-color="#CFCFCF"/>
<stop offset="1" stop-color="#F8F8F8"/>
</linearGradient>
<linearGradient id="paint9_linear_197_359" x1="436.725" y1="400.5" x2="435.725" y2="400.5" gradientUnits="userSpaceOnUse">
<stop stop-color="#CFCFCF"/>
<stop offset="1" stop-color="#F8F8F8"/>
</linearGradient>
<linearGradient id="paint10_linear_197_359" x1="329.725" y1="400.5" x2="328.725" y2="400.5" gradientUnits="userSpaceOnUse">
<stop stop-color="#CFCFCF"/>
<stop offset="1" stop-color="#F8F8F8"/>
</linearGradient>
<linearGradient id="paint11_linear_197_359" x1="221.725" y1="400.5" x2="220.725" y2="400.5" gradientUnits="userSpaceOnUse">
<stop stop-color="#CFCFCF"/>
<stop offset="1" stop-color="#F8F8F8"/>
</linearGradient>
<linearGradient id="paint12_linear_197_359" x1="118.725" y1="400.5" x2="117.725" y2="400.5" gradientUnits="userSpaceOnUse">
<stop stop-color="#CFCFCF"/>
<stop offset="1" stop-color="#F8F8F8"/>
</linearGradient>
<linearGradient id="paint13_linear_197_359" x1="10.7251" y1="400.5" x2="9.72508" y2="400.5" gradientUnits="userSpaceOnUse">
<stop stop-color="#CFCFCF"/>
<stop offset="1" stop-color="#F8F8F8"/>
</linearGradient>
<linearGradient id="paint14_linear_197_359" x1="971.996" y1="20.7656" x2="971.996" y2="21.7656" gradientUnits="userSpaceOnUse">
<stop stop-color="#CFCFCF"/>
<stop offset="1" stop-color="#F8F8F8"/>
</linearGradient>
<linearGradient id="paint15_linear_197_359" x1="971.996" y1="151.531" x2="971.996" y2="152.531" gradientUnits="userSpaceOnUse">
<stop stop-color="#CFCFCF"/>
<stop offset="1" stop-color="#F8F8F8"/>
</linearGradient>
<linearGradient id="paint16_linear_197_359" x1="971.996" y1="282.297" x2="971.996" y2="283.297" gradientUnits="userSpaceOnUse">
<stop stop-color="#CFCFCF"/>
<stop offset="1" stop-color="#F8F8F8"/>
</linearGradient>
<linearGradient id="paint17_linear_197_359" x1="971.996" y1="408.703" x2="971.996" y2="409.703" gradientUnits="userSpaceOnUse">
<stop stop-color="#CFCFCF"/>
<stop offset="1" stop-color="#F8F8F8"/>
</linearGradient>
<linearGradient id="paint18_linear_197_359" x1="971.996" y1="539.469" x2="971.996" y2="540.469" gradientUnits="userSpaceOnUse">
<stop stop-color="#CFCFCF"/>
<stop offset="1" stop-color="#F8F8F8"/>
</linearGradient>
<linearGradient id="paint19_linear_197_359" x1="971.996" y1="670.234" x2="971.996" y2="671.234" gradientUnits="userSpaceOnUse">
<stop stop-color="#CFCFCF"/>
<stop offset="1" stop-color="#F8F8F8"/>
</linearGradient>
<linearGradient id="paint20_linear_197_359" x1="971.996" y1="801" x2="971.996" y2="802" gradientUnits="userSpaceOnUse">
<stop stop-color="#CFCFCF"/>
<stop offset="1" stop-color="#F8F8F8"/>
</linearGradient>
<linearGradient id="paint21_linear_197_359" x1="1399.73" y1="400.5" x2="1398.73" y2="400.5" gradientUnits="userSpaceOnUse">
<stop stop-color="#CFCFCF"/>
<stop offset="1" stop-color="#F8F8F8"/>
</linearGradient>
<linearGradient id="paint22_linear_197_359" x1="1292.73" y1="400.5" x2="1291.73" y2="400.5" gradientUnits="userSpaceOnUse">
<stop stop-color="#CFCFCF"/>
<stop offset="1" stop-color="#F8F8F8"/>
</linearGradient>
<linearGradient id="paint23_linear_197_359" x1="1184.73" y1="400.5" x2="1183.73" y2="400.5" gradientUnits="userSpaceOnUse">
<stop stop-color="#CFCFCF"/>
<stop offset="1" stop-color="#F8F8F8"/>
</linearGradient>
<linearGradient id="paint24_linear_197_359" x1="1077.73" y1="400.5" x2="1076.73" y2="400.5" gradientUnits="userSpaceOnUse">
<stop stop-color="#CFCFCF"/>
<stop offset="1" stop-color="#F8F8F8"/>
</linearGradient>
<linearGradient id="paint25_linear_197_359" x1="973.725" y1="400.5" x2="972.725" y2="400.5" gradientUnits="userSpaceOnUse">
<stop stop-color="#CFCFCF"/>
<stop offset="1" stop-color="#F8F8F8"/>
</linearGradient>
<linearGradient id="paint26_linear_197_359" x1="866.725" y1="400.5" x2="865.725" y2="400.5" gradientUnits="userSpaceOnUse">
<stop stop-color="#CFCFCF"/>
<stop offset="1" stop-color="#F8F8F8"/>
</linearGradient>
<linearGradient id="paint27_linear_197_359" x1="758.725" y1="400.5" x2="757.725" y2="400.5" gradientUnits="userSpaceOnUse">
<stop stop-color="#CFCFCF"/>
<stop offset="1" stop-color="#F8F8F8"/>
</linearGradient>
<linearGradient id="paint28_linear_197_359" x1="651.725" y1="400.5" x2="650.725" y2="400.5" gradientUnits="userSpaceOnUse">
<stop stop-color="#CFCFCF"/>
<stop offset="1" stop-color="#F8F8F8"/>
</linearGradient>
<linearGradient id="paint29_linear_197_359" x1="1665.23" y1="21" x2="1665.23" y2="22" gradientUnits="userSpaceOnUse">
<stop stop-color="#CFCFCF"/>
<stop offset="1" stop-color="#F8F8F8"/>
</linearGradient>
<linearGradient id="paint30_linear_197_359" x1="1665.23" y1="152" x2="1665.23" y2="153" gradientUnits="userSpaceOnUse">
<stop stop-color="#CFCFCF"/>
<stop offset="1" stop-color="#F8F8F8"/>
</linearGradient>
<linearGradient id="paint31_linear_197_359" x1="1665.23" y1="282" x2="1665.23" y2="283" gradientUnits="userSpaceOnUse">
<stop stop-color="#CFCFCF"/>
<stop offset="1" stop-color="#F8F8F8"/>
</linearGradient>
<linearGradient id="paint32_linear_197_359" x1="1665.23" y1="409" x2="1665.23" y2="410" gradientUnits="userSpaceOnUse">
<stop stop-color="#CFCFCF"/>
<stop offset="1" stop-color="#F8F8F8"/>
</linearGradient>
<linearGradient id="paint33_linear_197_359" x1="1665.23" y1="539" x2="1665.23" y2="540" gradientUnits="userSpaceOnUse">
<stop stop-color="#CFCFCF"/>
<stop offset="1" stop-color="#F8F8F8"/>
</linearGradient>
<linearGradient id="paint34_linear_197_359" x1="1665.23" y1="670" x2="1665.23" y2="671" gradientUnits="userSpaceOnUse">
<stop stop-color="#CFCFCF"/>
<stop offset="1" stop-color="#F8F8F8"/>
</linearGradient>
<linearGradient id="paint35_linear_197_359" x1="1665.23" y1="801" x2="1665.23" y2="802" gradientUnits="userSpaceOnUse">
<stop stop-color="#CFCFCF"/>
<stop offset="1" stop-color="#F8F8F8"/>
</linearGradient>
<linearGradient id="paint36_linear_197_359" x1="1829.73" y1="400.5" x2="1828.73" y2="400.5" gradientUnits="userSpaceOnUse">
<stop stop-color="#CFCFCF"/>
<stop offset="1" stop-color="#F8F8F8"/>
</linearGradient>
<linearGradient id="paint37_linear_197_359" x1="1721.73" y1="400.5" x2="1720.73" y2="400.5" gradientUnits="userSpaceOnUse">
<stop stop-color="#CFCFCF"/>
<stop offset="1" stop-color="#F8F8F8"/>
</linearGradient>
<linearGradient id="paint38_linear_197_359" x1="1614.73" y1="400.5" x2="1613.73" y2="400.5" gradientUnits="userSpaceOnUse">
<stop stop-color="#CFCFCF"/>
<stop offset="1" stop-color="#F8F8F8"/>
</linearGradient>
<linearGradient id="paint39_linear_197_359" x1="1506.73" y1="400.5" x2="1505.73" y2="400.5" gradientUnits="userSpaceOnUse">
<stop stop-color="#CFCFCF"/>
<stop offset="1" stop-color="#F8F8F8"/>
</linearGradient>
<linearGradient id="paint40_linear_197_359" x1="189.502" y1="83.3853" x2="-18.1354" y2="820.826" gradientUnits="userSpaceOnUse">
<stop stop-color="#F8F8F8"/>
<stop offset="0.0001" stop-color="#F5F7F6"/>
<stop offset="1" stop-color="#EFECF1"/>
</linearGradient>
</defs>
</svg>
