<svg width="168" height="39" viewBox="0 0 168 39" fill="none" xmlns="http://www.w3.org/2000/svg">
<g clip-path="url(#clip0_349_525)">
<path d="M13.0276 28.6087H9.0728L0 11.5454H6.7262L10.853 20.7553L14.9089 11.5454H18.9345L22.9905 20.7553L27.1172 11.5454H33.8536L24.7807 28.6087H20.8158L16.9217 19.7965L13.0276 28.6087Z" fill="#CEF369"/>
<path d="M49.1862 20.8879H36.907C36.907 22.0863 37.2915 22.9735 38.0601 23.5498C38.8339 24.1286 39.671 24.4168 40.5686 24.4168C41.5193 24.4168 42.268 24.2918 42.8141 24.0394C43.3653 23.782 43.9923 23.2746 44.6953 22.5197L48.9232 24.6514C47.1633 27.6245 44.2351 29.1083 40.1437 29.1083C37.595 29.1083 35.4051 28.2287 33.5793 26.4668C31.7512 24.6998 30.8384 22.5757 30.8384 20.0923C30.8384 17.6114 31.7512 15.4823 33.5793 13.7077C35.4051 11.933 37.595 11.0457 40.1437 11.0457C42.8268 11.0457 45.0089 11.8285 46.6879 13.3915C48.3719 14.9571 49.2166 17.1907 49.2166 20.0923C49.2166 20.4952 49.2065 20.7604 49.1862 20.8879ZM37.079 17.6343H43.5119C43.3754 16.7445 43.0291 16.0611 42.4701 15.5843C41.9087 15.11 41.1881 14.8704 40.3056 14.8704C39.3398 14.8704 38.5709 15.1253 37.9994 15.6353C37.4256 16.1453 37.1195 16.8133 37.079 17.6343Z" fill="#CEF369"/>
<path d="M66.2686 13.6771C67.8515 15.4262 68.6454 17.5629 68.6454 20.0923C68.6454 22.6217 67.8515 24.7584 66.2686 26.4974C64.6831 28.2389 62.6703 29.1083 60.2301 29.1083C57.9846 29.1083 56.1363 28.3001 54.6873 26.681H54.6266V28.6087H48.8511V0H54.6873V13.1671C56.1363 11.7545 57.9846 11.0457 60.2301 11.0457C62.6703 11.0457 64.6831 11.9228 66.2686 13.6771ZM61.3528 22.9685C62.081 22.2291 62.4452 21.2703 62.4452 20.0923C62.4452 18.9169 62.0633 17.9505 61.3022 17.1958C60.5463 16.441 59.6054 16.0637 58.4803 16.0637C57.3802 16.0637 56.4497 16.441 55.6886 17.1958C54.9327 17.9505 54.5558 18.9169 54.5558 20.0923C54.5558 21.2499 54.9225 22.2035 55.6582 22.9583C56.3991 23.708 57.3398 24.0802 58.4803 24.0802C59.6661 24.0802 60.6246 23.7106 61.3528 22.9685Z" fill="#CEF369"/>
<path d="M75.3291 26.4974C73.7436 24.7584 72.9521 22.6217 72.9521 20.0923C72.9521 17.5629 73.7436 15.4262 75.3291 13.6771C76.912 11.9228 78.9248 11.0457 81.3674 11.0457C83.6129 11.0457 85.4588 11.7545 86.9102 13.1671V0H92.7464V28.6087H86.9709V26.681H86.9102C85.4588 28.3001 83.6129 29.1083 81.3674 29.1083C78.9248 29.1083 76.912 28.2389 75.3291 26.4974ZM80.2852 17.1958C79.5292 17.9505 79.1523 18.9169 79.1523 20.0923C79.1523 21.2703 79.5165 22.2291 80.2447 22.9685C80.9731 23.7106 81.9288 24.0802 83.1174 24.0802C84.2552 24.0802 85.1932 23.708 85.9292 22.9583C86.67 22.2035 87.0418 21.2499 87.0418 20.0923C87.0418 18.9169 86.6599 17.9505 85.8988 17.1958C85.1429 16.441 84.2147 16.0637 83.1174 16.0637C81.9895 16.0637 81.0463 16.441 80.2852 17.1958Z" fill="#2E2E2E"/>
<path d="M110.728 20.8879H98.4488C98.4488 22.0863 98.833 22.9735 99.6018 23.5498C100.375 24.1286 101.213 24.4168 102.11 24.4168C103.061 24.4168 103.809 24.2918 104.356 24.0394C104.907 23.782 105.534 23.2746 106.237 22.5197L110.465 24.6514C108.705 27.6245 105.777 29.1083 101.685 29.1083C99.1365 29.1083 96.9468 28.2287 95.1211 26.4668C93.2927 24.6998 92.3799 22.5757 92.3799 20.0923C92.3799 17.6114 93.2927 15.4823 95.1211 13.7077C96.9468 11.933 99.1365 11.0457 101.685 11.0457C104.368 11.0457 106.55 11.8285 108.23 13.3915C109.914 14.9571 110.758 17.1907 110.758 20.0923C110.758 20.4952 110.748 20.7604 110.728 20.8879ZM98.6207 17.6343H105.054C104.917 16.7445 104.571 16.0611 104.012 15.5843C103.45 15.11 102.73 14.8704 101.847 14.8704C100.881 14.8704 100.113 15.1253 99.5411 15.6353C98.9671 16.1453 98.6612 16.8133 98.6207 17.6343Z" fill="#2E2E2E"/>
<path d="M117.746 11.0457C118.717 11.0457 119.673 11.1579 120.619 11.3823C121.562 11.6015 122.267 11.8208 122.732 12.0452L123.42 12.3716L121.509 16.237C120.186 15.5231 118.932 15.1661 117.746 15.1661C117.084 15.1661 116.616 15.2426 116.34 15.3905C116.07 15.5333 115.936 15.8036 115.936 16.1963C115.936 16.2855 115.946 16.3748 115.966 16.4614C115.986 16.5507 116.029 16.6348 116.098 16.7164C116.163 16.7929 116.224 16.8592 116.279 16.9204C116.333 16.9765 116.424 17.0377 116.553 17.104C116.687 17.1652 116.79 17.2136 116.866 17.2468C116.947 17.2825 117.073 17.3335 117.251 17.3998C117.425 17.461 117.556 17.5094 117.645 17.5425C117.731 17.5782 117.88 17.6292 118.09 17.6955C118.297 17.7644 118.459 17.8077 118.575 17.8281C119.256 18.027 119.85 18.2463 120.356 18.4911C120.861 18.7358 121.392 19.0699 121.954 19.4906C122.513 19.9139 122.948 20.4467 123.259 21.0918C123.567 21.7319 123.724 22.4637 123.724 23.2848C123.724 27.168 121.049 29.1083 115.703 29.1083C114.489 29.1083 113.339 28.9197 112.254 28.5475C111.167 28.1675 110.383 27.7901 109.897 27.4152L109.169 26.8136L111.546 22.7849C111.72 22.9429 111.95 23.1265 112.234 23.3358C112.522 23.5474 113.043 23.8354 113.791 24.2026C114.54 24.5698 115.187 24.7534 115.733 24.7534C116.947 24.7534 117.554 24.3428 117.554 23.5191C117.554 23.1393 117.397 22.8435 117.089 22.6319C116.778 22.4229 116.254 22.1831 115.521 21.9179C114.785 21.6528 114.209 21.4131 113.791 21.1938C112.732 20.638 111.892 20.0107 111.273 19.3172C110.658 18.6186 110.352 17.6904 110.352 16.5328C110.352 14.799 111.015 13.4527 112.345 12.494C113.68 11.5302 115.48 11.0457 117.746 11.0457Z" fill="#2E2E2E"/>
<path d="M124.077 2.02963C124.757 1.34373 125.569 0.999512 126.514 0.999512C127.465 0.999512 128.279 1.34373 128.962 2.02963C129.642 2.71806 129.984 3.53656 129.984 4.48762C129.984 5.44124 129.642 6.26226 128.962 6.95582C128.279 7.64425 127.465 7.98592 126.514 7.98592C125.569 7.98592 124.757 7.64425 124.077 6.95582C123.394 6.26226 123.055 5.44124 123.055 4.48762C123.055 3.53656 123.394 2.71806 124.077 2.02963ZM123.521 11.5454V28.6087H129.357V11.5454H123.521Z" fill="#2E2E2E"/>
<path d="M129.622 32.8004L134.406 30.4343C135.281 31.903 136.809 32.6374 138.988 32.6374C140 32.6374 140.94 32.3058 141.81 31.6479C142.68 30.9951 143.115 29.9905 143.115 28.6393V27.3744C142.083 28.5321 140.235 29.1083 137.572 29.1083C135.129 29.1083 133.117 28.2389 131.534 26.4974C129.948 24.7584 129.157 22.6217 129.157 20.0923C129.157 17.5629 129.948 15.4262 131.534 13.6771C133.117 11.9228 135.129 11.0457 137.572 11.0457C139.749 11.0457 141.562 11.7239 143.014 13.0753H143.115V11.5454H148.951V29.0777C148.951 31.8444 148.036 33.9836 146.21 35.493C144.389 37.0025 141.982 37.7573 138.988 37.7573C134.146 37.7573 131.023 36.1051 129.622 32.8004ZM136.49 17.1958C135.734 17.9505 135.357 18.9169 135.357 20.0923C135.357 21.2703 135.721 22.2291 136.45 22.9685C137.178 23.7106 138.134 24.0802 139.322 24.0802C140.46 24.0802 141.398 23.708 142.134 22.9584C142.875 22.2035 143.246 21.2499 143.246 20.0923C143.246 18.9169 142.865 17.9505 142.103 17.1958C141.347 16.441 140.419 16.0637 139.322 16.0637C138.194 16.0637 137.251 16.441 136.49 17.1958Z" fill="#2E2E2E"/>
<path d="M149.809 28.6087V11.5454H155.645V13.3405H155.715C157.233 11.8106 158.846 11.0457 160.56 11.0457C161.395 11.0457 162.224 11.1579 163.048 11.3823C163.878 11.6015 164.669 11.9432 165.425 12.4124C166.186 12.8764 166.804 13.5343 167.276 14.391C167.747 15.2426 167.984 16.2319 167.984 17.359V28.6087H162.148V18.9602C162.148 18.078 161.865 17.3029 161.299 16.6348C160.737 15.9693 160.009 15.6353 159.114 15.6353C158.229 15.6353 157.43 15.9795 156.717 16.6654C156.001 17.3539 155.645 18.1188 155.645 18.9602V28.6087H149.809Z" fill="#2E2E2E"/>
<path d="M54.5011 33.9936C54.6149 33.9936 54.7086 34.0344 54.7843 34.116C54.8577 34.1924 54.8956 34.2868 54.8956 34.4014V37.2369C54.8956 37.3541 54.8577 37.4511 54.7843 37.5327C54.7086 37.6091 54.6149 37.6449 54.5011 37.6449C54.3848 37.6449 54.2912 37.6091 54.218 37.5327C54.142 37.4587 54.1016 37.3643 54.0966 37.2471C53.9879 37.3771 53.8388 37.4893 53.6515 37.5837C53.4619 37.6703 53.2621 37.7163 53.0548 37.7163C52.7513 37.7163 52.4732 37.6397 52.2255 37.4817C51.9827 37.3185 51.7853 37.0991 51.6387 36.8187C51.4971 36.533 51.4263 36.2144 51.4263 35.86C51.4263 35.5004 51.4971 35.1818 51.6387 34.9012C51.7804 34.6156 51.9726 34.3964 52.2154 34.2384C52.4631 34.0752 52.7363 33.9936 53.0346 33.9936C53.2419 33.9936 53.439 34.0344 53.6211 34.116C53.8084 34.1924 53.9677 34.2892 54.0966 34.4116V34.4014C54.0966 34.2868 54.1319 34.1924 54.2079 34.116C54.2888 34.0344 54.3848 33.9936 54.5011 33.9936ZM53.156 36.9717C53.4442 36.9717 53.6818 36.867 53.8639 36.6554C54.046 36.4464 54.1371 36.1812 54.1371 35.86C54.1371 35.5412 54.046 35.276 53.8639 35.0644C53.6818 34.8476 53.4442 34.738 53.156 34.738C52.8727 34.738 52.64 34.8476 52.458 35.0644C52.2761 35.276 52.185 35.5412 52.185 35.86C52.185 36.1812 52.2761 36.4464 52.458 36.6554C52.64 36.867 52.8727 36.9717 53.156 36.9717Z" fill="#2E2E2E"/>
<path d="M63.0261 33.9936C63.14 33.9936 63.2336 34.0344 63.3094 34.116C63.3903 34.1924 63.4308 34.2868 63.4308 34.4014V37.3797C63.4308 37.9227 63.2614 38.3231 62.925 38.5831C62.5937 38.8483 62.169 38.9809 61.6507 38.9809C61.5215 38.9809 61.3397 38.9553 61.1044 38.9095C60.8743 38.8687 60.7099 38.8279 60.6089 38.7871C60.3913 38.6903 60.2852 38.5577 60.2852 38.3893C60.2852 38.3613 60.2901 38.3281 60.3054 38.2873C60.3306 38.1905 60.3762 38.1165 60.4369 38.0629C60.5026 38.0069 60.5734 37.9815 60.6492 37.9815C60.6948 37.9815 60.7402 37.9865 60.7807 38.0017C60.7934 38.0069 60.9021 38.0477 61.1044 38.1241C61.3067 38.2057 61.4888 38.2465 61.6507 38.2465C61.9794 38.2465 62.2271 38.1777 62.389 38.0425C62.5509 37.9125 62.6318 37.7289 62.6318 37.4919V37.1655C62.5306 37.3083 62.3815 37.4383 62.1867 37.5531C61.9895 37.6601 61.782 37.7163 61.5596 37.7163C61.2486 37.7163 60.9654 37.6397 60.7099 37.4817C60.452 37.3185 60.2497 37.0991 60.1031 36.8187C59.9614 36.533 59.8906 36.2144 59.8906 35.86C59.8906 35.5004 59.9614 35.1818 60.1031 34.9012C60.2497 34.6156 60.4494 34.3964 60.6997 34.2384C60.9477 34.0752 61.2258 33.9936 61.5293 33.9936C61.7517 33.9936 61.9591 34.042 62.1563 34.1364C62.3511 34.2332 62.5104 34.348 62.6318 34.483V34.4014C62.6318 34.2868 62.6671 34.1924 62.7431 34.116C62.8163 34.0344 62.9099 33.9936 63.0261 33.9936ZM61.6507 36.9717C61.9464 36.9717 62.1892 36.867 62.3789 36.6554C62.5659 36.4464 62.6621 36.1812 62.6621 35.86C62.6621 35.5412 62.5659 35.276 62.3789 35.0644C62.1892 34.8476 61.9464 34.738 61.6507 34.738C61.3599 34.738 61.1197 34.8476 60.9324 35.0644C60.7428 35.276 60.6492 35.5412 60.6492 35.86C60.6492 36.1812 60.7428 36.4464 60.9324 36.6554C61.1197 36.867 61.3599 36.9717 61.6507 36.9717Z" fill="#2E2E2E"/>
<path d="M71.8093 35.7682C71.8018 35.8778 71.7587 35.967 71.6778 36.0334C71.5969 36.1022 71.5058 36.1352 71.4049 36.1352H69.21C69.2629 36.3954 69.3843 36.5995 69.574 36.7472C69.7612 36.8976 69.9786 36.9717 70.2214 36.9717C70.4033 36.9717 70.545 36.9589 70.6461 36.9309C70.7473 36.8976 70.8282 36.8595 70.8889 36.8187C70.9496 36.7778 70.9901 36.7525 71.0103 36.737C71.0912 36.7038 71.1647 36.686 71.2329 36.686C71.3263 36.686 71.4072 36.7219 71.4755 36.788C71.5413 36.8493 71.5766 36.9259 71.5766 37.0125C71.5766 37.1349 71.511 37.2445 71.3846 37.3389C71.2632 37.4485 71.0962 37.5403 70.8889 37.6143C70.679 37.6805 70.4692 37.7163 70.2619 37.7163C69.8902 37.7163 69.5664 37.6397 69.2907 37.4817C69.0126 37.3261 68.7978 37.1119 68.6435 36.8391C68.4943 36.5613 68.4209 36.2474 68.4209 35.9008C68.4209 35.5208 68.4969 35.1868 68.6536 34.9012C68.8154 34.6106 69.0279 34.3862 69.2907 34.2282C69.5537 34.0726 69.8318 33.9936 70.1304 33.9936C70.4186 33.9936 70.6918 34.0752 70.9496 34.2384C71.2126 34.4014 71.4199 34.6208 71.5766 34.891C71.731 35.1638 71.8093 35.457 71.8093 35.7682ZM70.1304 34.738C69.6095 34.738 69.306 34.9802 69.2201 35.4622H70.9597V35.4214C70.9395 35.2326 70.8435 35.072 70.6765 34.942C70.5146 34.8068 70.3327 34.738 70.1304 34.738Z" fill="#2E2E2E"/>
<path d="M78.6931 33.9936C79.1432 33.9936 79.4542 34.1312 79.6239 34.4014C79.7982 34.6744 79.8867 35.0492 79.8867 35.5234V37.2369C79.8867 37.3541 79.8488 37.4511 79.7754 37.5327C79.6996 37.6091 79.606 37.6449 79.4923 37.6449C79.3759 37.6449 79.2825 37.6091 79.2091 37.5327C79.1331 37.4511 79.0978 37.3541 79.0978 37.2369V35.5234C79.0978 35.2786 79.0423 35.09 78.9359 34.9522C78.8348 34.8094 78.6628 34.738 78.4202 34.738C78.1621 34.738 77.96 34.8146 77.8132 34.9624C77.664 35.1128 77.5906 35.299 77.5906 35.5234V37.2369C77.5906 37.3541 77.5528 37.4511 77.4796 37.5327C77.4036 37.6091 77.31 37.6449 77.1963 37.6449C77.0799 37.6449 76.9864 37.6091 76.913 37.5327C76.8373 37.4511 76.8018 37.3541 76.8018 37.2369V34.4728C76.8018 34.3582 76.8373 34.2638 76.913 34.1874C76.9864 34.1058 77.0799 34.065 77.1963 34.065C77.31 34.065 77.4036 34.1058 77.4796 34.1874C77.5528 34.2638 77.5906 34.3582 77.5906 34.4728V34.585C77.712 34.4296 77.8664 34.2944 78.056 34.1772C78.2508 34.0548 78.463 33.9936 78.6931 33.9936Z" fill="#2E2E2E"/>
<path d="M86.6244 33.9936C87.0013 33.9936 87.3046 34.0548 87.5347 34.1772C87.7624 34.2944 87.8786 34.45 87.8786 34.6462C87.8786 34.7482 87.8483 34.8374 87.7876 34.9114C87.732 34.9802 87.6612 35.0134 87.5751 35.0134C87.4994 35.0134 87.4387 35.0032 87.393 34.9828C87.3526 34.9624 87.3121 34.937 87.2718 34.9012C87.2314 34.868 87.1909 34.84 87.1505 34.8196C87.1022 34.7992 87.034 34.784 86.9481 34.7686C86.8672 34.7482 86.799 34.738 86.7458 34.738C86.407 34.738 86.144 34.8452 85.9569 35.0542C85.7748 35.2582 85.6838 35.5284 85.6838 35.86C85.6838 36.1812 85.7774 36.4464 85.967 36.6554C86.1541 36.867 86.3969 36.9717 86.6952 36.9717C86.9102 36.9717 87.0719 36.9487 87.1808 36.9003C87.206 36.8874 87.2439 36.8647 87.2921 36.8289C87.3375 36.7956 87.378 36.7676 87.4133 36.7472C87.4537 36.7268 87.5043 36.7166 87.565 36.7166C87.6713 36.7166 87.7572 36.7548 87.8179 36.8289C87.8836 36.8976 87.9191 36.9895 87.9191 37.1043C87.9191 37.2139 87.8584 37.3159 87.737 37.4103C87.6156 37.4995 87.4488 37.5735 87.2415 37.6347C87.0392 37.6881 86.8216 37.7163 86.594 37.7163C86.2552 37.7163 85.9569 37.6347 85.6939 37.4715C85.436 37.3083 85.2386 37.0889 85.0972 36.8085C84.9556 36.5228 84.8848 36.2066 84.8848 35.86C84.8848 35.5004 84.9579 35.1818 85.1073 34.9012C85.2539 34.6156 85.4612 34.3964 85.7242 34.2384C85.9922 34.0752 86.2931 33.9936 86.6244 33.9936Z" fill="#2E2E2E"/>
<path d="M95.4641 34.065C95.578 34.065 95.6714 34.1058 95.7474 34.1872C95.8208 34.2638 95.8587 34.3582 95.8587 34.4728V37.3185C95.8587 37.8947 95.7018 38.3179 95.3933 38.5831C95.09 38.8483 94.6778 38.9809 94.1593 38.9809C94.0101 38.9809 93.856 38.9655 93.6942 38.9401C93.5373 38.9197 93.4135 38.8891 93.3198 38.8483C93.0973 38.7515 92.986 38.6239 92.986 38.4607C92.986 38.4251 92.9912 38.3919 93.0062 38.3587C93.0316 38.2567 93.0771 38.1777 93.1378 38.1241C93.2036 38.0757 93.2744 38.0527 93.3502 38.0527C93.3958 38.0527 93.4412 38.0579 93.4817 38.0731C93.5146 38.0859 93.5676 38.1063 93.6436 38.1343C93.717 38.1675 93.7977 38.1955 93.8864 38.2159C93.9723 38.2363 94.0633 38.2465 94.1593 38.2465C94.468 38.2465 94.6981 38.1777 94.8472 38.0425C94.9938 37.9049 95.0698 37.6703 95.0698 37.3389V37.2777C94.8395 37.5709 94.483 37.7163 93.9977 37.7163C93.7674 37.7163 93.5652 37.6601 93.3907 37.5531C93.2137 37.4383 93.0771 37.2853 92.9759 37.0941C92.8799 36.8977 92.8345 36.6759 92.8345 36.431V34.4728C92.8345 34.3582 92.8698 34.2638 92.9455 34.1872C93.0189 34.1058 93.1126 34.065 93.2288 34.065C93.3427 34.065 93.4363 34.1058 93.5121 34.1872C93.5855 34.2638 93.6233 34.3582 93.6233 34.4728V36.1862C93.6233 36.4669 93.684 36.6657 93.8054 36.7881C93.9268 36.9105 94.1038 36.9717 94.3414 36.9717C94.5689 36.9717 94.7487 36.9055 94.8776 36.7677C95.0039 36.6324 95.0698 36.4389 95.0698 36.1862V34.4728C95.0698 34.3582 95.1051 34.2638 95.1809 34.1872C95.2543 34.1058 95.3479 34.065 95.4641 34.065Z" fill="#2E2E2E"/>
<path d="M110.1 35.044C110.327 35.1408 110.517 35.2862 110.666 35.4826C110.813 35.6738 110.889 35.9186 110.889 36.2168C110.889 36.7472 110.737 37.1194 110.433 37.3287C110.135 37.5403 109.781 37.6449 109.371 37.6449H107.713C107.596 37.6449 107.5 37.6091 107.419 37.5327C107.343 37.4511 107.308 37.3541 107.308 37.2369V33.3714C107.308 33.2566 107.343 33.1624 107.419 33.0858C107.5 33.0042 107.596 32.9633 107.713 32.9633H109.392C110.226 32.9633 110.646 33.3612 110.646 34.1568C110.646 34.3556 110.598 34.5316 110.504 34.687C110.408 34.8374 110.274 34.9574 110.1 35.044ZM109.786 34.2994C109.786 34.116 109.738 33.9808 109.645 33.8916C109.556 33.7972 109.432 33.7488 109.27 33.7488H108.168V34.7992H109.291C109.417 34.7992 109.533 34.7558 109.634 34.6666C109.736 34.5724 109.786 34.45 109.786 34.2994ZM109.371 36.8798C109.574 36.8798 109.73 36.8262 109.847 36.7166C109.968 36.6018 110.029 36.4362 110.029 36.2168C110.029 35.9594 109.958 35.7886 109.817 35.707C109.68 35.6254 109.516 35.5846 109.321 35.5846H108.168V36.8798H109.371Z" fill="#2E2E2E"/>
<path d="M117.977 32.9633C118.394 32.9633 118.751 33.0706 119.049 33.2796C119.345 33.4836 119.57 33.764 119.727 34.116C119.889 34.4704 119.97 34.8656 119.97 35.299C119.97 35.7426 119.889 36.1404 119.727 36.4922C119.57 36.8466 119.345 37.1296 119.049 37.3389C118.751 37.5429 118.394 37.6449 117.977 37.6449H116.389C116.273 37.6449 116.177 37.6091 116.096 37.5327C116.02 37.4511 115.984 37.3541 115.984 37.2369V33.3714C115.984 33.2566 116.02 33.1624 116.096 33.0858C116.177 33.0042 116.273 32.9633 116.389 32.9633H117.977ZM117.906 36.8798C118.303 36.8798 118.604 36.732 118.806 36.431C119.009 36.1328 119.11 35.7554 119.11 35.299C119.11 34.8452 119.009 34.4704 118.806 34.1772C118.604 33.8788 118.303 33.7284 117.906 33.7284H116.814V36.8798H117.906Z" fill="#2E2E2E"/>
</g>
<defs>
<clipPath id="clip0_349_525">
<rect width="168" height="39" fill="white"/>
</clipPath>
</defs>
</svg>
