<svg width="246" height="57" viewBox="0 0 246 57" fill="none" xmlns="http://www.w3.org/2000/svg">
<g clip-path="url(#clip0_350_3865)">
<path d="M19.0404 41.8126H13.2602L0 16.874H9.8306L15.862 30.3345L21.79 16.874H27.6736L33.6015 30.3345L39.6328 16.874H49.4783L36.2179 41.8126H30.4231L24.7317 28.9333L19.0404 41.8126Z" fill="#CEF369"/>
<path d="M71.8874 30.5283H53.9409C53.9409 32.2799 54.5027 33.5766 55.6261 34.4187C56.7571 35.2647 57.9805 35.6859 59.2924 35.6859C60.6819 35.6859 61.7761 35.5032 62.5742 35.1343C63.3799 34.7581 64.2963 34.0165 65.3237 32.9133L71.5029 36.0288C68.9308 40.3741 64.6511 42.5427 58.6714 42.5427C54.9463 42.5427 51.7457 41.2571 49.0773 38.6822C46.4055 36.0996 45.0713 32.9952 45.0713 29.3656C45.0713 25.7396 46.4055 22.6279 49.0773 20.0341C51.7457 17.4404 54.9463 16.1436 58.6714 16.1436C62.5928 16.1436 65.7821 17.2876 68.2359 19.5721C70.6973 21.8602 71.9317 25.1247 71.9317 29.3656C71.9317 29.9544 71.9169 30.3419 71.8874 30.5283ZM54.1922 25.7731H63.5941C63.3947 24.4725 62.8885 23.4738 62.0715 22.7769C61.251 22.0838 60.1978 21.7335 58.908 21.7335C57.4964 21.7335 56.3727 22.1061 55.5374 22.8515C54.6987 23.5968 54.2514 24.5731 54.1922 25.7731Z" fill="#CEF369"/>
<path d="M96.8539 19.9896C99.1674 22.546 100.328 25.6689 100.328 29.3657C100.328 33.0625 99.1674 36.1853 96.8539 38.727C94.5366 41.2722 91.5948 42.5429 88.0283 42.5429C84.7465 42.5429 82.0451 41.3616 79.9273 38.9954H79.8386V41.8127H71.3975V0H79.9273V19.2442C82.0451 17.1797 84.7465 16.1437 88.0283 16.1437C91.5948 16.1437 94.5366 17.4256 96.8539 19.9896ZM89.6692 33.5694C90.7335 32.4887 91.2658 31.0874 91.2658 29.3657C91.2658 27.6477 90.7077 26.2354 89.5953 25.1323C88.4905 24.0292 87.1154 23.4777 85.471 23.4777C83.8631 23.4777 82.5032 24.0292 81.3908 25.1323C80.2859 26.2354 79.7351 27.6477 79.7351 29.3657C79.7351 31.0576 80.2711 32.4513 81.3464 33.5545C82.4292 34.6501 83.804 35.1941 85.471 35.1941C87.2041 35.1941 88.605 34.6539 89.6692 33.5694Z" fill="#CEF369"/>
<path d="M110.096 38.727C107.779 36.1853 106.622 33.0625 106.622 29.3657C106.622 25.6689 107.779 22.546 110.096 19.9896C112.41 17.4256 115.351 16.1437 118.921 16.1437C122.203 16.1437 124.901 17.1797 127.022 19.2442V0H135.552V41.8127H127.111V38.9954H127.022C124.901 41.3616 122.203 42.5429 118.921 42.5429C115.351 42.5429 112.41 41.2722 110.096 38.727ZM117.34 25.1323C116.235 26.2354 115.684 27.6477 115.684 29.3657C115.684 31.0874 116.216 32.4887 117.28 33.5694C118.345 34.6539 119.742 35.1941 121.479 35.1941C123.142 35.1941 124.513 34.6501 125.588 33.5545C126.671 32.4513 127.215 31.0576 127.215 29.3657C127.215 27.6477 126.656 26.2354 125.544 25.1323C124.439 24.0292 123.083 23.4777 121.479 23.4777C119.83 23.4777 118.452 24.0292 117.34 25.1323Z" fill="white"/>
<path d="M161.833 30.5283H143.887C143.887 32.2799 144.448 33.5766 145.572 34.4187C146.702 35.2647 147.926 35.6859 149.238 35.6859C150.627 35.6859 151.721 35.5032 152.52 35.1343C153.325 34.7581 154.242 34.0165 155.269 32.9133L161.449 36.0288C158.876 40.3741 154.597 42.5427 148.617 42.5427C144.892 42.5427 141.691 41.2571 139.023 38.6822C136.351 36.0996 135.017 32.9952 135.017 29.3656C135.017 25.7396 136.351 22.6279 139.023 20.0341C141.691 17.4404 144.892 16.1436 148.617 16.1436C152.538 16.1436 155.727 17.2876 158.182 19.5721C160.643 21.8602 161.877 25.1247 161.877 29.3656C161.877 29.9544 161.862 30.3419 161.833 30.5283ZM144.138 25.7731H153.54C153.34 24.4725 152.834 23.4738 152.017 22.7769C151.197 22.0838 150.143 21.7335 148.854 21.7335C147.442 21.7335 146.318 22.1061 145.483 22.8515C144.644 23.5968 144.197 24.5731 144.138 25.7731Z" fill="white"/>
<path d="M172.09 16.1436C173.509 16.1436 174.906 16.3075 176.288 16.6355C177.667 16.956 178.698 17.2764 179.378 17.6044L180.383 18.0814L177.589 23.7309C175.657 22.6875 173.823 22.1658 172.09 22.1658C171.122 22.1658 170.438 22.2776 170.035 22.4937C169.64 22.7024 169.444 23.0974 169.444 23.6713C169.444 23.8018 169.459 23.9322 169.488 24.0589C169.518 24.1893 169.581 24.3123 169.681 24.4316C169.777 24.5433 169.865 24.6402 169.946 24.7297C170.024 24.8116 170.157 24.9011 170.346 24.998C170.542 25.0874 170.693 25.1582 170.804 25.2067C170.922 25.2589 171.107 25.3334 171.366 25.4303C171.621 25.5197 171.813 25.5905 171.942 25.639C172.068 25.6911 172.286 25.7657 172.593 25.8626C172.896 25.9632 173.132 26.0265 173.302 26.0564C174.296 26.347 175.165 26.6675 175.904 27.0253C176.643 27.383 177.419 27.8712 178.24 28.4861C179.056 29.1047 179.692 29.8836 180.147 30.8264C180.598 31.7619 180.827 32.8315 180.827 34.0314C180.827 39.707 176.917 42.5427 169.104 42.5427C167.33 42.5427 165.648 42.2671 164.063 41.7231C162.474 41.1677 161.328 40.6161 160.618 40.0683L159.554 39.189L163.028 33.3009C163.283 33.5319 163.619 33.8002 164.033 34.106C164.455 34.4152 165.216 34.8362 166.31 35.3729C167.404 35.9096 168.35 36.1779 169.148 36.1779C170.922 36.1779 171.809 35.5778 171.809 34.374C171.809 33.8189 171.58 33.3866 171.129 33.0773C170.675 32.7719 169.91 32.4214 168.838 32.0337C167.763 31.6463 166.92 31.296 166.31 30.9755C164.761 30.1631 163.534 29.2463 162.629 28.2327C161.731 27.2116 161.284 25.8551 161.284 24.1632C161.284 21.6291 162.252 19.6615 164.196 18.2603C166.147 16.8516 168.779 16.1436 172.09 16.1436Z" fill="white"/>
<path d="M181.343 2.96649C182.337 1.96403 183.523 1.46094 184.905 1.46094C186.295 1.46094 187.485 1.96403 188.483 2.96649C189.477 3.97266 189.976 5.16893 189.976 6.55894C189.976 7.9527 189.477 9.15265 188.483 10.1663C187.485 11.1725 186.295 11.6718 184.905 11.6718C183.523 11.6718 182.337 11.1725 181.343 10.1663C180.345 9.15265 179.85 7.9527 179.85 6.55894C179.85 5.16893 180.345 3.97266 181.343 2.96649ZM180.53 16.8742V41.8128H189.06V16.8742H180.53Z" fill="white"/>
<path d="M189.448 47.9389L196.44 44.4808C197.719 46.6273 199.951 47.7006 203.137 47.7006C204.615 47.7006 205.99 47.216 207.261 46.2546C208.532 45.3004 209.168 43.8321 209.168 41.8573V40.0087C207.66 41.7006 204.959 42.5427 201.067 42.5427C197.497 42.5427 194.555 41.2721 192.242 38.7269C189.924 36.1852 188.768 33.0624 188.768 29.3656C188.768 25.6688 189.924 22.5459 192.242 19.9894C194.555 17.4255 197.497 16.1436 201.067 16.1436C204.249 16.1436 206.899 17.1349 209.02 19.1099H209.168V16.874H217.698V42.498C217.698 46.5416 216.36 49.6682 213.692 51.8743C211.031 54.0804 207.512 55.1836 203.137 55.1836C196.059 55.1836 191.495 52.7688 189.448 47.9389ZM199.485 25.1321C198.38 26.2352 197.83 27.6476 197.83 29.3656C197.83 31.0873 198.362 32.4886 199.426 33.5693C200.491 34.6538 201.888 35.194 203.624 35.194C205.287 35.194 206.659 34.65 207.734 33.5544C208.817 32.4512 209.36 31.0574 209.36 29.3656C209.36 27.6476 208.802 26.2352 207.69 25.1321C206.585 24.0291 205.228 23.4775 203.624 23.4775C201.976 23.4775 200.598 24.0291 199.485 25.1321Z" fill="white"/>
<path d="M218.951 41.8126V16.874H227.48V19.4975H227.584C229.801 17.2615 232.159 16.1436 234.665 16.1436C235.884 16.1436 237.097 16.3075 238.301 16.6355C239.514 16.956 240.67 17.4553 241.775 18.141C242.888 18.8193 243.79 19.7807 244.481 21.0329C245.168 22.2776 245.515 23.7235 245.515 25.3706V41.8126H236.986V27.711C236.986 26.4216 236.572 25.2887 235.744 24.3123C234.923 23.3396 233.859 22.8515 232.551 22.8515C231.257 22.8515 230.089 23.3545 229.047 24.357C228.001 25.3632 227.48 26.4812 227.48 27.711V41.8126H218.951Z" fill="white"/>
<path d="M79.6551 49.6831C79.8215 49.6831 79.9583 49.7427 80.0691 49.862C80.1763 49.9737 80.2317 50.1116 80.2317 50.2791V54.4233C80.2317 54.5946 80.1763 54.7363 80.0691 54.8556C79.9583 54.9673 79.8215 55.0196 79.6551 55.0196C79.4852 55.0196 79.3483 54.9673 79.2414 54.8556C79.1303 54.7474 79.0712 54.6095 79.064 54.4382C78.9051 54.6282 78.6871 54.7922 78.4134 54.9302C78.1362 55.0567 77.8443 55.124 77.5413 55.124C77.0978 55.124 76.6913 55.012 76.3292 54.7811C75.9744 54.5425 75.6859 54.2219 75.4716 53.812C75.2646 53.3946 75.1611 52.929 75.1611 52.411C75.1611 51.8854 75.2646 51.4198 75.4716 51.0096C75.6786 50.5922 75.9596 50.2718 76.3144 50.0409C76.6765 49.8024 77.0757 49.6831 77.5118 49.6831C77.8147 49.6831 78.1029 49.7427 78.369 49.862C78.6427 49.9737 78.8755 50.1151 79.064 50.294V50.2791C79.064 50.1116 79.1155 49.9737 79.2266 49.862C79.3449 49.7427 79.4852 49.6831 79.6551 49.6831ZM77.6892 54.0357C78.1104 54.0357 78.4577 53.8828 78.7239 53.5735C78.99 53.268 79.1231 52.8804 79.1231 52.411C79.1231 51.945 78.99 51.5574 78.7239 51.2481C78.4577 50.9313 78.1104 50.7711 77.6892 50.7711C77.2752 50.7711 76.9351 50.9313 76.669 51.2481C76.4031 51.5574 76.2701 51.945 76.2701 52.411C76.2701 52.8804 76.4031 53.268 76.669 53.5735C76.9351 53.8828 77.2752 54.0357 77.6892 54.0357Z" fill="white"/>
<path d="M92.1149 49.6831C92.2813 49.6831 92.4181 49.7427 92.5289 49.862C92.6472 49.9737 92.7063 50.1116 92.7063 50.2791V54.632C92.7063 55.4256 92.4587 56.0108 91.967 56.3908C91.4829 56.7785 90.8622 56.9723 90.1046 56.9723C89.9159 56.9723 89.6501 56.9348 89.3062 56.8679C88.9699 56.8083 88.7296 56.7486 88.582 56.689C88.264 56.5475 88.1089 56.3537 88.1089 56.1076C88.1089 56.0667 88.1161 56.0181 88.1384 55.9585C88.1753 55.817 88.2419 55.7089 88.3307 55.6305C88.4266 55.5487 88.5301 55.5116 88.6408 55.5116C88.7075 55.5116 88.7739 55.5189 88.8331 55.5411C88.8516 55.5487 89.0105 55.6083 89.3062 55.72C89.6019 55.8392 89.8681 55.8989 90.1046 55.8989C90.585 55.8989 90.9471 55.7983 91.1837 55.6007C91.4203 55.4107 91.5385 55.1424 91.5385 54.796V54.3189C91.3907 54.5276 91.1727 54.7176 90.888 54.8854C90.5998 55.0418 90.2965 55.124 89.9716 55.124C89.517 55.124 89.103 55.012 88.7296 54.7811C88.3527 54.5425 88.057 54.2219 87.8427 53.812C87.6357 53.3946 87.5322 52.929 87.5322 52.411C87.5322 51.8854 87.6357 51.4198 87.8427 51.0096C88.057 50.5922 88.3489 50.2718 88.7148 50.0409C89.0772 49.8024 89.4836 49.6831 89.9272 49.6831C90.2522 49.6831 90.5554 49.7538 90.8436 49.8918C91.1283 50.0333 91.3611 50.2011 91.5385 50.3984V50.2791C91.5385 50.1116 91.5901 49.9737 91.7012 49.862C91.8082 49.7427 91.945 49.6831 92.1149 49.6831ZM90.1046 54.0357C90.5369 54.0357 90.8917 53.8828 91.1689 53.5735C91.4423 53.268 91.5829 52.8804 91.5829 52.411C91.5829 51.945 91.4423 51.5574 91.1689 51.2481C90.8917 50.9313 90.5369 50.7711 90.1046 50.7711C89.6796 50.7711 89.3285 50.9313 89.0549 51.2481C88.7777 51.5574 88.6408 51.945 88.6408 52.411C88.6408 52.8804 88.7777 53.268 89.0549 53.5735C89.3285 53.8828 89.6796 54.0357 90.1046 54.0357Z" fill="white"/>
<path d="M104.952 52.2768C104.941 52.437 104.878 52.5674 104.76 52.6644C104.641 52.765 104.508 52.8132 104.361 52.8132H101.153C101.23 53.1935 101.408 53.4917 101.685 53.7077C101.958 53.9275 102.276 54.0357 102.631 54.0357C102.897 54.0357 103.104 54.0169 103.252 53.976C103.4 53.9275 103.518 53.8717 103.607 53.812C103.695 53.7524 103.754 53.7153 103.784 53.6928C103.902 53.6442 104.01 53.6182 104.109 53.6182C104.246 53.6182 104.364 53.6706 104.464 53.7673C104.56 53.8568 104.612 53.9687 104.612 54.0953C104.612 54.2742 104.516 54.4344 104.331 54.5724C104.154 54.7325 103.91 54.8667 103.607 54.9749C103.3 55.0716 102.993 55.124 102.69 55.124C102.147 55.124 101.674 55.012 101.271 54.7811C100.864 54.5536 100.55 54.2406 100.325 53.8419C100.107 53.4358 99.9995 52.9772 99.9995 52.4706C99.9995 51.9152 100.111 51.427 100.34 51.0096C100.576 50.5849 100.887 50.2569 101.271 50.026C101.655 49.7986 102.062 49.6831 102.498 49.6831C102.919 49.6831 103.318 49.8024 103.695 50.0409C104.08 50.2791 104.383 50.5998 104.612 50.9947C104.837 51.3934 104.952 51.822 104.952 52.2768ZM102.498 50.7711C101.737 50.7711 101.293 51.1251 101.168 51.8296H103.71V51.7699C103.681 51.494 103.54 51.2593 103.296 51.0693C103.06 50.8716 102.794 50.7711 102.498 50.7711Z" fill="white"/>
<path d="M115.013 49.6831C115.671 49.6831 116.125 49.8842 116.373 50.2791C116.628 50.6781 116.757 51.2259 116.757 51.919V54.4233C116.757 54.5946 116.702 54.7363 116.595 54.8556C116.484 54.9673 116.347 55.0196 116.181 55.0196C116.011 55.0196 115.874 54.9673 115.767 54.8556C115.656 54.7363 115.604 54.5946 115.604 54.4233V51.919C115.604 51.5612 115.523 51.2856 115.368 51.0842C115.22 50.8754 114.968 50.7711 114.614 50.7711C114.237 50.7711 113.941 50.8831 113.727 51.0991C113.509 51.3189 113.402 51.591 113.402 51.919V54.4233C113.402 54.5946 113.346 54.7363 113.239 54.8556C113.128 54.9673 112.991 55.0196 112.825 55.0196C112.655 55.0196 112.518 54.9673 112.411 54.8556C112.3 54.7363 112.249 54.5946 112.249 54.4233V50.3835C112.249 50.216 112.3 50.078 112.411 49.9664C112.518 49.8471 112.655 49.7875 112.825 49.7875C112.991 49.7875 113.128 49.8471 113.239 49.9664C113.346 50.078 113.402 50.216 113.402 50.3835V50.5475C113.579 50.3204 113.805 50.1227 114.082 49.9515C114.366 49.7726 114.677 49.6831 115.013 49.6831Z" fill="white"/>
<path d="M126.605 49.6831C127.155 49.6831 127.599 49.7726 127.935 49.9515C128.268 50.1227 128.438 50.3502 128.438 50.6369C128.438 50.786 128.393 50.9164 128.305 51.0245C128.223 51.1251 128.12 51.1736 127.994 51.1736C127.883 51.1736 127.795 51.1587 127.728 51.1289C127.669 51.0991 127.61 51.062 127.551 51.0096C127.492 50.9611 127.433 50.9202 127.373 50.8904C127.303 50.8605 127.203 50.8383 127.078 50.8158C126.959 50.786 126.86 50.7711 126.782 50.7711C126.287 50.7711 125.902 50.9278 125.629 51.2332C125.363 51.5314 125.23 51.9263 125.23 52.411C125.23 52.8804 125.367 53.268 125.644 53.5735C125.917 53.8828 126.272 54.0357 126.708 54.0357C127.022 54.0357 127.259 54.002 127.418 53.9313C127.455 53.9126 127.51 53.8793 127.58 53.8269C127.647 53.7784 127.706 53.7375 127.758 53.7077C127.817 53.6779 127.891 53.663 127.979 53.663C128.135 53.663 128.26 53.7188 128.349 53.8269C128.445 53.9275 128.497 54.0617 128.497 54.2295C128.497 54.3897 128.408 54.5387 128.231 54.6767C128.053 54.8071 127.809 54.9152 127.506 55.0047C127.211 55.0827 126.893 55.124 126.56 55.124C126.065 55.124 125.629 55.0047 125.245 54.7662C124.868 54.5276 124.579 54.2069 124.373 53.7971C124.166 53.3797 124.062 52.9175 124.062 52.411C124.062 51.8854 124.169 51.4198 124.387 51.0096C124.602 50.5922 124.904 50.2718 125.289 50.0409C125.681 49.8024 126.12 49.6831 126.605 49.6831Z" fill="white"/>
<path d="M139.525 49.7871C139.691 49.7871 139.827 49.8467 139.939 49.9657C140.046 50.0777 140.101 50.2156 140.101 50.3831V54.5422C140.101 55.3843 139.872 56.0029 139.421 56.3905C138.978 56.7781 138.375 56.9719 137.617 56.9719C137.399 56.9719 137.174 56.9494 136.938 56.9123C136.708 56.8825 136.527 56.8377 136.391 56.7781C136.065 56.6366 135.903 56.4501 135.903 56.2116C135.903 56.1596 135.91 56.111 135.932 56.0625C135.969 55.9134 136.036 55.798 136.124 55.7196C136.221 55.6489 136.324 55.6153 136.435 55.6153C136.502 55.6153 136.568 55.6229 136.627 55.6451C136.675 55.6638 136.753 55.6936 136.864 55.7345C136.971 55.7831 137.089 55.824 137.219 55.8538C137.344 55.8836 137.477 55.8985 137.617 55.8985C138.069 55.8985 138.405 55.798 138.623 55.6003C138.837 55.3992 138.948 55.0564 138.948 54.572V54.4826C138.612 54.9111 138.091 55.1236 137.381 55.1236C137.045 55.1236 136.749 55.0414 136.494 54.8851C136.235 54.7173 136.036 54.4937 135.888 54.2142C135.748 53.9271 135.681 53.603 135.681 53.2452V50.3831C135.681 50.2156 135.733 50.0777 135.843 49.9657C135.951 49.8467 136.088 49.7871 136.257 49.7871C136.424 49.7871 136.561 49.8467 136.671 49.9657C136.779 50.0777 136.834 50.2156 136.834 50.3831V52.8874C136.834 53.2975 136.923 53.5881 137.1 53.767C137.278 53.9459 137.536 54.0353 137.884 54.0353C138.216 54.0353 138.479 53.9386 138.667 53.7371C138.852 53.5395 138.948 53.2566 138.948 52.8874V50.3831C138.948 50.2156 139 50.0777 139.111 49.9657C139.218 49.8467 139.355 49.7871 139.525 49.7871Z" fill="white"/>
<path d="M160.915 51.2182C161.248 51.3597 161.525 51.5722 161.743 51.8593C161.957 52.1387 162.068 52.4965 162.068 52.9323C162.068 53.7075 161.846 54.2515 161.403 54.5573C160.967 54.8666 160.449 55.0195 159.851 55.0195H157.426C157.256 55.0195 157.116 54.9671 156.998 54.8555C156.887 54.7362 156.835 54.5944 156.835 54.4231V48.7736C156.835 48.6058 156.887 48.4681 156.998 48.3561C157.116 48.2369 157.256 48.1772 157.426 48.1772H159.88C161.1 48.1772 161.713 48.7587 161.713 49.9215C161.713 50.2121 161.643 50.4693 161.506 50.6964C161.366 50.9162 161.17 51.0916 160.915 51.2182ZM160.457 50.1299C160.457 49.8619 160.386 49.6643 160.25 49.5339C160.121 49.3959 159.939 49.3252 159.703 49.3252H158.091V50.8604H159.732C159.917 50.8604 160.087 50.797 160.235 50.6666C160.383 50.5289 160.457 50.35 160.457 50.1299ZM159.851 53.9014C160.146 53.9014 160.375 53.823 160.546 53.6628C160.723 53.495 160.811 53.253 160.811 52.9323C160.811 52.5561 160.708 52.3065 160.501 52.1872C160.301 52.068 160.061 52.0083 159.777 52.0083H158.091V53.9014H159.851Z" fill="white"/>
<path d="M172.428 48.1772C173.038 48.1772 173.559 48.3339 173.995 48.6394C174.427 48.9376 174.756 49.3474 174.985 49.8619C175.222 50.3798 175.34 50.9575 175.34 51.5909C175.34 52.2392 175.222 52.8207 174.985 53.3348C174.756 53.8528 174.427 54.2664 173.995 54.5722C173.559 54.8704 173.038 55.0195 172.428 55.0195H170.107C169.937 55.0195 169.797 54.9671 169.678 54.8555C169.568 54.7362 169.516 54.5944 169.516 54.4231V48.7736C169.516 48.6058 169.568 48.4681 169.678 48.3561C169.797 48.2369 169.937 48.1772 170.107 48.1772H172.428ZM172.325 53.9014C172.905 53.9014 173.345 53.6853 173.64 53.2454C173.936 52.8096 174.084 52.258 174.084 51.5909C174.084 50.9276 173.936 50.3799 173.64 49.9513C173.345 49.5152 172.905 49.2954 172.325 49.2954H170.728V53.9014H172.325Z" fill="white"/>
</g>
<defs>
<clipPath id="clip0_350_3865">
<rect width="245.538" height="57" fill="white"/>
</clipPath>
</defs>
</svg>
