<svg width="1921" height="653" viewBox="0 0 1921 653" fill="none" xmlns="http://www.w3.org/2000/svg">
<line y1="0.5" x2="640" y2="0.5" stroke="url(#paint0_linear_197_462)" stroke-opacity="0.04"/>
<line y1="94.0885" x2="640" y2="94.0885" stroke="url(#paint1_linear_197_462)" stroke-opacity="0.04"/>
<line y1="187.677" x2="640" y2="187.677" stroke="url(#paint2_linear_197_462)" stroke-opacity="0.04"/>
<line y1="281.265" x2="640" y2="281.265" stroke="url(#paint3_linear_197_462)" stroke-opacity="0.04"/>
<line y1="371.734" x2="640" y2="371.734" stroke="url(#paint4_linear_197_462)" stroke-opacity="0.04"/>
<line y1="465.323" x2="640" y2="465.323" stroke="url(#paint5_linear_197_462)" stroke-opacity="0.04"/>
<line y1="558.912" x2="640" y2="558.912" stroke="url(#paint6_linear_197_462)" stroke-opacity="0.04"/>
<line y1="652.5" x2="640" y2="652.5" stroke="url(#paint7_linear_197_462)" stroke-opacity="0.04"/>
<line x1="640.5" y1="1" x2="640.5" y2="653" stroke="url(#paint8_linear_197_462)" stroke-opacity="0.04"/>
<line x1="560.166" y1="1" x2="560.165" y2="653" stroke="url(#paint9_linear_197_462)" stroke-opacity="0.04"/>
<line x1="479.831" y1="1" x2="479.831" y2="653" stroke="url(#paint10_linear_197_462)" stroke-opacity="0.04"/>
<line x1="399.496" y1="1" x2="399.496" y2="653" stroke="url(#paint11_linear_197_462)" stroke-opacity="0.04"/>
<line x1="321.839" y1="1" x2="321.839" y2="653" stroke="url(#paint12_linear_197_462)" stroke-opacity="0.04"/>
<line x1="241.504" y1="1" x2="241.504" y2="653" stroke="url(#paint13_linear_197_462)" stroke-opacity="0.04"/>
<line x1="161.169" y1="1" x2="161.169" y2="653" stroke="url(#paint14_linear_197_462)" stroke-opacity="0.04"/>
<line x1="80.8345" y1="1" x2="80.8344" y2="653" stroke="url(#paint15_linear_197_462)" stroke-opacity="0.04"/>
<line x1="640" y1="0.5" x2="1280" y2="0.5" stroke="url(#paint16_linear_197_462)" stroke-opacity="0.04"/>
<line x1="640" y1="94.0885" x2="1280" y2="94.0885" stroke="url(#paint17_linear_197_462)" stroke-opacity="0.04"/>
<line x1="640" y1="187.677" x2="1280" y2="187.677" stroke="url(#paint18_linear_197_462)" stroke-opacity="0.04"/>
<line x1="640" y1="281.265" x2="1280" y2="281.265" stroke="url(#paint19_linear_197_462)" stroke-opacity="0.04"/>
<line x1="640" y1="371.734" x2="1280" y2="371.734" stroke="url(#paint20_linear_197_462)" stroke-opacity="0.04"/>
<line x1="640" y1="465.323" x2="1280" y2="465.323" stroke="url(#paint21_linear_197_462)" stroke-opacity="0.04"/>
<line x1="640" y1="558.912" x2="1280" y2="558.912" stroke="url(#paint22_linear_197_462)" stroke-opacity="0.04"/>
<line x1="640" y1="652.5" x2="1280" y2="652.5" stroke="url(#paint23_linear_197_462)" stroke-opacity="0.04"/>
<line x1="1280.5" y1="1" x2="1280.5" y2="653" stroke="url(#paint24_linear_197_462)" stroke-opacity="0.04"/>
<line x1="1200.17" y1="1" x2="1200.17" y2="653" stroke="url(#paint25_linear_197_462)" stroke-opacity="0.04"/>
<line x1="1119.83" y1="1" x2="1119.83" y2="653" stroke="url(#paint26_linear_197_462)" stroke-opacity="0.04"/>
<line x1="1039.5" y1="1" x2="1039.5" y2="653" stroke="url(#paint27_linear_197_462)" stroke-opacity="0.04"/>
<line x1="961.839" y1="1" x2="961.839" y2="653" stroke="url(#paint28_linear_197_462)" stroke-opacity="0.04"/>
<line x1="881.504" y1="1" x2="881.504" y2="653" stroke="url(#paint29_linear_197_462)" stroke-opacity="0.04"/>
<line x1="801.169" y1="1" x2="801.169" y2="653" stroke="url(#paint30_linear_197_462)" stroke-opacity="0.04"/>
<line x1="720.834" y1="1" x2="720.834" y2="653" stroke="url(#paint31_linear_197_462)" stroke-opacity="0.04"/>
<line x1="1280" y1="0.5" x2="1920" y2="0.5" stroke="url(#paint32_linear_197_462)" stroke-opacity="0.04"/>
<line x1="1280" y1="94.0885" x2="1920" y2="94.0885" stroke="url(#paint33_linear_197_462)" stroke-opacity="0.04"/>
<line x1="1280" y1="187.677" x2="1920" y2="187.677" stroke="url(#paint34_linear_197_462)" stroke-opacity="0.04"/>
<line x1="1280" y1="281.265" x2="1920" y2="281.265" stroke="url(#paint35_linear_197_462)" stroke-opacity="0.04"/>
<line x1="1280" y1="371.734" x2="1920" y2="371.734" stroke="url(#paint36_linear_197_462)" stroke-opacity="0.04"/>
<line x1="1280" y1="465.323" x2="1920" y2="465.323" stroke="url(#paint37_linear_197_462)" stroke-opacity="0.04"/>
<line x1="1280" y1="558.912" x2="1920" y2="558.912" stroke="url(#paint38_linear_197_462)" stroke-opacity="0.04"/>
<line x1="1280" y1="652.5" x2="1920" y2="652.5" stroke="url(#paint39_linear_197_462)" stroke-opacity="0.04"/>
<line x1="1920.5" y1="1" x2="1920.5" y2="653" stroke="url(#paint40_linear_197_462)" stroke-opacity="0.04"/>
<line x1="1840.17" y1="1" x2="1840.17" y2="653" stroke="url(#paint41_linear_197_462)" stroke-opacity="0.04"/>
<line x1="1759.83" y1="1" x2="1759.83" y2="653" stroke="url(#paint42_linear_197_462)" stroke-opacity="0.04"/>
<line x1="1679.5" y1="1" x2="1679.5" y2="653" stroke="url(#paint43_linear_197_462)" stroke-opacity="0.04"/>
<line x1="1601.84" y1="1" x2="1601.84" y2="653" stroke="url(#paint44_linear_197_462)" stroke-opacity="0.04"/>
<line x1="1521.5" y1="1" x2="1521.5" y2="653" stroke="url(#paint45_linear_197_462)" stroke-opacity="0.04"/>
<line x1="1441.17" y1="1" x2="1441.17" y2="653" stroke="url(#paint46_linear_197_462)" stroke-opacity="0.04"/>
<line x1="1360.83" y1="1" x2="1360.83" y2="653" stroke="url(#paint47_linear_197_462)" stroke-opacity="0.04"/>
<rect x="241.004" y="282.013" width="80.3347" height="89.9735" fill="#F1F1F1" fill-opacity="0.01"/>
<rect x="398.996" y="94.671" width="80.3347" height="93.671" fill="#F1F1F1" fill-opacity="0.01"/>
<rect x="559.666" y="282.013" width="80.3347" height="89.9735" fill="#F1F1F1" fill-opacity="0.01"/>
<rect x="881.004" y="188.342" width="80.3347" height="92.4385" fill="#F1F1F1" fill-opacity="0.01"/>
<rect x="1119.33" y="188.342" width="80.3347" height="92.4385" fill="#F1F1F1" fill-opacity="0.01"/>
<rect x="1281.34" y="1" width="80.3347" height="93.671" fill="#F1F1F1" fill-opacity="0.01"/>
<rect x="1521" y="370.754" width="80.3347" height="94.9035" fill="#F1F1F1" fill-opacity="0.01"/>
<rect x="1039" y="465.658" width="80.3347" height="93.671" fill="#F1F1F1" fill-opacity="0.01"/>
<rect x="559.666" y="559.329" width="80.3347" height="93.671" fill="#F1F1F1" fill-opacity="0.01"/>
<defs>
<linearGradient id="paint0_linear_197_462" x1="320" y1="1" x2="320" y2="2" gradientUnits="userSpaceOnUse">
<stop stop-color="#CFCFCF"/>
<stop offset="1" stop-color="#F8F8F8"/>
</linearGradient>
<linearGradient id="paint1_linear_197_462" x1="320" y1="94.5885" x2="320" y2="95.5885" gradientUnits="userSpaceOnUse">
<stop stop-color="#CFCFCF"/>
<stop offset="1" stop-color="#F8F8F8"/>
</linearGradient>
<linearGradient id="paint2_linear_197_462" x1="320" y1="188.177" x2="320" y2="189.177" gradientUnits="userSpaceOnUse">
<stop stop-color="#CFCFCF"/>
<stop offset="1" stop-color="#F8F8F8"/>
</linearGradient>
<linearGradient id="paint3_linear_197_462" x1="320" y1="281.765" x2="320" y2="282.765" gradientUnits="userSpaceOnUse">
<stop stop-color="#CFCFCF"/>
<stop offset="1" stop-color="#F8F8F8"/>
</linearGradient>
<linearGradient id="paint4_linear_197_462" x1="320" y1="372.234" x2="320" y2="373.234" gradientUnits="userSpaceOnUse">
<stop stop-color="#CFCFCF"/>
<stop offset="1" stop-color="#F8F8F8"/>
</linearGradient>
<linearGradient id="paint5_linear_197_462" x1="320" y1="465.823" x2="320" y2="466.823" gradientUnits="userSpaceOnUse">
<stop stop-color="#CFCFCF"/>
<stop offset="1" stop-color="#F8F8F8"/>
</linearGradient>
<linearGradient id="paint6_linear_197_462" x1="320" y1="559.412" x2="320" y2="560.412" gradientUnits="userSpaceOnUse">
<stop stop-color="#CFCFCF"/>
<stop offset="1" stop-color="#F8F8F8"/>
</linearGradient>
<linearGradient id="paint7_linear_197_462" x1="320" y1="653" x2="320" y2="654" gradientUnits="userSpaceOnUse">
<stop stop-color="#CFCFCF"/>
<stop offset="1" stop-color="#F8F8F8"/>
</linearGradient>
<linearGradient id="paint8_linear_197_462" x1="640" y1="327" x2="639" y2="327" gradientUnits="userSpaceOnUse">
<stop stop-color="#CFCFCF"/>
<stop offset="1" stop-color="#F8F8F8"/>
</linearGradient>
<linearGradient id="paint9_linear_197_462" x1="559.666" y1="327" x2="558.666" y2="327" gradientUnits="userSpaceOnUse">
<stop stop-color="#CFCFCF"/>
<stop offset="1" stop-color="#F8F8F8"/>
</linearGradient>
<linearGradient id="paint10_linear_197_462" x1="479.331" y1="327" x2="478.331" y2="327" gradientUnits="userSpaceOnUse">
<stop stop-color="#CFCFCF"/>
<stop offset="1" stop-color="#F8F8F8"/>
</linearGradient>
<linearGradient id="paint11_linear_197_462" x1="398.996" y1="327" x2="397.996" y2="327" gradientUnits="userSpaceOnUse">
<stop stop-color="#CFCFCF"/>
<stop offset="1" stop-color="#F8F8F8"/>
</linearGradient>
<linearGradient id="paint12_linear_197_462" x1="321.339" y1="327" x2="320.339" y2="327" gradientUnits="userSpaceOnUse">
<stop stop-color="#CFCFCF"/>
<stop offset="1" stop-color="#F8F8F8"/>
</linearGradient>
<linearGradient id="paint13_linear_197_462" x1="241.004" y1="327" x2="240.004" y2="327" gradientUnits="userSpaceOnUse">
<stop stop-color="#CFCFCF"/>
<stop offset="1" stop-color="#F8F8F8"/>
</linearGradient>
<linearGradient id="paint14_linear_197_462" x1="160.669" y1="327" x2="159.669" y2="327" gradientUnits="userSpaceOnUse">
<stop stop-color="#CFCFCF"/>
<stop offset="1" stop-color="#F8F8F8"/>
</linearGradient>
<linearGradient id="paint15_linear_197_462" x1="80.3345" y1="327" x2="79.3345" y2="327" gradientUnits="userSpaceOnUse">
<stop stop-color="#CFCFCF"/>
<stop offset="1" stop-color="#F8F8F8"/>
</linearGradient>
<linearGradient id="paint16_linear_197_462" x1="960" y1="1" x2="960" y2="2" gradientUnits="userSpaceOnUse">
<stop stop-color="#CFCFCF"/>
<stop offset="1" stop-color="#F8F8F8"/>
</linearGradient>
<linearGradient id="paint17_linear_197_462" x1="960" y1="94.5885" x2="960" y2="95.5885" gradientUnits="userSpaceOnUse">
<stop stop-color="#CFCFCF"/>
<stop offset="1" stop-color="#F8F8F8"/>
</linearGradient>
<linearGradient id="paint18_linear_197_462" x1="960" y1="188.177" x2="960" y2="189.177" gradientUnits="userSpaceOnUse">
<stop stop-color="#CFCFCF"/>
<stop offset="1" stop-color="#F8F8F8"/>
</linearGradient>
<linearGradient id="paint19_linear_197_462" x1="960" y1="281.765" x2="960" y2="282.765" gradientUnits="userSpaceOnUse">
<stop stop-color="#CFCFCF"/>
<stop offset="1" stop-color="#F8F8F8"/>
</linearGradient>
<linearGradient id="paint20_linear_197_462" x1="960" y1="372.234" x2="960" y2="373.234" gradientUnits="userSpaceOnUse">
<stop stop-color="#CFCFCF"/>
<stop offset="1" stop-color="#F8F8F8"/>
</linearGradient>
<linearGradient id="paint21_linear_197_462" x1="960" y1="465.823" x2="960" y2="466.823" gradientUnits="userSpaceOnUse">
<stop stop-color="#CFCFCF"/>
<stop offset="1" stop-color="#F8F8F8"/>
</linearGradient>
<linearGradient id="paint22_linear_197_462" x1="960" y1="559.412" x2="960" y2="560.412" gradientUnits="userSpaceOnUse">
<stop stop-color="#CFCFCF"/>
<stop offset="1" stop-color="#F8F8F8"/>
</linearGradient>
<linearGradient id="paint23_linear_197_462" x1="960" y1="653" x2="960" y2="654" gradientUnits="userSpaceOnUse">
<stop stop-color="#CFCFCF"/>
<stop offset="1" stop-color="#F8F8F8"/>
</linearGradient>
<linearGradient id="paint24_linear_197_462" x1="1280" y1="327" x2="1279" y2="327" gradientUnits="userSpaceOnUse">
<stop stop-color="#CFCFCF"/>
<stop offset="1" stop-color="#F8F8F8"/>
</linearGradient>
<linearGradient id="paint25_linear_197_462" x1="1199.67" y1="327" x2="1198.67" y2="327" gradientUnits="userSpaceOnUse">
<stop stop-color="#CFCFCF"/>
<stop offset="1" stop-color="#F8F8F8"/>
</linearGradient>
<linearGradient id="paint26_linear_197_462" x1="1119.33" y1="327" x2="1118.33" y2="327" gradientUnits="userSpaceOnUse">
<stop stop-color="#CFCFCF"/>
<stop offset="1" stop-color="#F8F8F8"/>
</linearGradient>
<linearGradient id="paint27_linear_197_462" x1="1039" y1="327" x2="1038" y2="327" gradientUnits="userSpaceOnUse">
<stop stop-color="#CFCFCF"/>
<stop offset="1" stop-color="#F8F8F8"/>
</linearGradient>
<linearGradient id="paint28_linear_197_462" x1="961.339" y1="327" x2="960.339" y2="327" gradientUnits="userSpaceOnUse">
<stop stop-color="#CFCFCF"/>
<stop offset="1" stop-color="#F8F8F8"/>
</linearGradient>
<linearGradient id="paint29_linear_197_462" x1="881.004" y1="327" x2="880.004" y2="327" gradientUnits="userSpaceOnUse">
<stop stop-color="#CFCFCF"/>
<stop offset="1" stop-color="#F8F8F8"/>
</linearGradient>
<linearGradient id="paint30_linear_197_462" x1="800.669" y1="327" x2="799.669" y2="327" gradientUnits="userSpaceOnUse">
<stop stop-color="#CFCFCF"/>
<stop offset="1" stop-color="#F8F8F8"/>
</linearGradient>
<linearGradient id="paint31_linear_197_462" x1="720.334" y1="327" x2="719.334" y2="327" gradientUnits="userSpaceOnUse">
<stop stop-color="#CFCFCF"/>
<stop offset="1" stop-color="#F8F8F8"/>
</linearGradient>
<linearGradient id="paint32_linear_197_462" x1="1600" y1="1" x2="1600" y2="2" gradientUnits="userSpaceOnUse">
<stop stop-color="#CFCFCF"/>
<stop offset="1" stop-color="#F8F8F8"/>
</linearGradient>
<linearGradient id="paint33_linear_197_462" x1="1600" y1="94.5885" x2="1600" y2="95.5885" gradientUnits="userSpaceOnUse">
<stop stop-color="#CFCFCF"/>
<stop offset="1" stop-color="#F8F8F8"/>
</linearGradient>
<linearGradient id="paint34_linear_197_462" x1="1600" y1="188.177" x2="1600" y2="189.177" gradientUnits="userSpaceOnUse">
<stop stop-color="#CFCFCF"/>
<stop offset="1" stop-color="#F8F8F8"/>
</linearGradient>
<linearGradient id="paint35_linear_197_462" x1="1600" y1="281.765" x2="1600" y2="282.765" gradientUnits="userSpaceOnUse">
<stop stop-color="#CFCFCF"/>
<stop offset="1" stop-color="#F8F8F8"/>
</linearGradient>
<linearGradient id="paint36_linear_197_462" x1="1600" y1="372.234" x2="1600" y2="373.234" gradientUnits="userSpaceOnUse">
<stop stop-color="#CFCFCF"/>
<stop offset="1" stop-color="#F8F8F8"/>
</linearGradient>
<linearGradient id="paint37_linear_197_462" x1="1600" y1="465.823" x2="1600" y2="466.823" gradientUnits="userSpaceOnUse">
<stop stop-color="#CFCFCF"/>
<stop offset="1" stop-color="#F8F8F8"/>
</linearGradient>
<linearGradient id="paint38_linear_197_462" x1="1600" y1="559.412" x2="1600" y2="560.412" gradientUnits="userSpaceOnUse">
<stop stop-color="#CFCFCF"/>
<stop offset="1" stop-color="#F8F8F8"/>
</linearGradient>
<linearGradient id="paint39_linear_197_462" x1="1600" y1="653" x2="1600" y2="654" gradientUnits="userSpaceOnUse">
<stop stop-color="#CFCFCF"/>
<stop offset="1" stop-color="#F8F8F8"/>
</linearGradient>
<linearGradient id="paint40_linear_197_462" x1="1920" y1="327" x2="1919" y2="327" gradientUnits="userSpaceOnUse">
<stop stop-color="#CFCFCF"/>
<stop offset="1" stop-color="#F8F8F8"/>
</linearGradient>
<linearGradient id="paint41_linear_197_462" x1="1839.67" y1="327" x2="1838.67" y2="327" gradientUnits="userSpaceOnUse">
<stop stop-color="#CFCFCF"/>
<stop offset="1" stop-color="#F8F8F8"/>
</linearGradient>
<linearGradient id="paint42_linear_197_462" x1="1759.33" y1="327" x2="1758.33" y2="327" gradientUnits="userSpaceOnUse">
<stop stop-color="#CFCFCF"/>
<stop offset="1" stop-color="#F8F8F8"/>
</linearGradient>
<linearGradient id="paint43_linear_197_462" x1="1679" y1="327" x2="1678" y2="327" gradientUnits="userSpaceOnUse">
<stop stop-color="#CFCFCF"/>
<stop offset="1" stop-color="#F8F8F8"/>
</linearGradient>
<linearGradient id="paint44_linear_197_462" x1="1601.34" y1="327" x2="1600.34" y2="327" gradientUnits="userSpaceOnUse">
<stop stop-color="#CFCFCF"/>
<stop offset="1" stop-color="#F8F8F8"/>
</linearGradient>
<linearGradient id="paint45_linear_197_462" x1="1521" y1="327" x2="1520" y2="327" gradientUnits="userSpaceOnUse">
<stop stop-color="#CFCFCF"/>
<stop offset="1" stop-color="#F8F8F8"/>
</linearGradient>
<linearGradient id="paint46_linear_197_462" x1="1440.67" y1="327" x2="1439.67" y2="327" gradientUnits="userSpaceOnUse">
<stop stop-color="#CFCFCF"/>
<stop offset="1" stop-color="#F8F8F8"/>
</linearGradient>
<linearGradient id="paint47_linear_197_462" x1="1360.33" y1="327" x2="1359.33" y2="327" gradientUnits="userSpaceOnUse">
<stop stop-color="#CFCFCF"/>
<stop offset="1" stop-color="#F8F8F8"/>
</linearGradient>
</defs>
</svg>
