<svg width="1921" height="773" viewBox="0 0 1921 773" fill="none" xmlns="http://www.w3.org/2000/svg">
<line y1="0.5" x2="640" y2="0.5" stroke="url(#paint0_linear_197_557)" stroke-opacity="0.24"/>
<line y1="111.313" x2="640" y2="111.313" stroke="url(#paint1_linear_197_557)" stroke-opacity="0.24"/>
<line y1="222.126" x2="640" y2="222.126" stroke="url(#paint2_linear_197_557)" stroke-opacity="0.24"/>
<line y1="332.939" x2="640" y2="332.939" stroke="url(#paint3_linear_197_557)" stroke-opacity="0.24"/>
<line y1="440.059" x2="640" y2="440.059" stroke="url(#paint4_linear_197_557)" stroke-opacity="0.24"/>
<line y1="550.872" x2="640" y2="550.872" stroke="url(#paint5_linear_197_557)" stroke-opacity="0.24"/>
<line y1="661.686" x2="640" y2="661.686" stroke="url(#paint6_linear_197_557)" stroke-opacity="0.24"/>
<line y1="772.499" x2="640" y2="772.499" stroke="url(#paint7_linear_197_557)" stroke-opacity="0.24"/>
<line x1="640.5" y1="1" x2="640.5" y2="773" stroke="url(#paint8_linear_197_557)" stroke-opacity="0.24"/>
<line x1="560.165" y1="1" x2="560.165" y2="773" stroke="url(#paint9_linear_197_557)" stroke-opacity="0.24"/>
<line x1="479.831" y1="1" x2="479.831" y2="773" stroke="url(#paint10_linear_197_557)" stroke-opacity="0.24"/>
<line x1="399.496" y1="1" x2="399.496" y2="773" stroke="url(#paint11_linear_197_557)" stroke-opacity="0.24"/>
<line x1="321.839" y1="1" x2="321.839" y2="773" stroke="url(#paint12_linear_197_557)" stroke-opacity="0.24"/>
<line x1="241.504" y1="1" x2="241.504" y2="773" stroke="url(#paint13_linear_197_557)" stroke-opacity="0.24"/>
<line x1="161.169" y1="1" x2="161.169" y2="773" stroke="url(#paint14_linear_197_557)" stroke-opacity="0.24"/>
<line x1="80.835" y1="1" x2="80.8349" y2="773" stroke="url(#paint15_linear_197_557)" stroke-opacity="0.24"/>
<line x1="640" y1="0.5" x2="1280" y2="0.5" stroke="url(#paint16_linear_197_557)" stroke-opacity="0.24"/>
<line x1="640" y1="111.313" x2="1280" y2="111.313" stroke="url(#paint17_linear_197_557)" stroke-opacity="0.24"/>
<line x1="640" y1="222.126" x2="1280" y2="222.126" stroke="url(#paint18_linear_197_557)" stroke-opacity="0.24"/>
<line x1="640" y1="332.939" x2="1280" y2="332.939" stroke="url(#paint19_linear_197_557)" stroke-opacity="0.24"/>
<line x1="640" y1="440.059" x2="1280" y2="440.059" stroke="url(#paint20_linear_197_557)" stroke-opacity="0.24"/>
<line x1="640" y1="550.872" x2="1280" y2="550.872" stroke="url(#paint21_linear_197_557)" stroke-opacity="0.24"/>
<line x1="640" y1="661.686" x2="1280" y2="661.686" stroke="url(#paint22_linear_197_557)" stroke-opacity="0.24"/>
<line x1="640" y1="772.499" x2="1280" y2="772.499" stroke="url(#paint23_linear_197_557)" stroke-opacity="0.24"/>
<line x1="1280.5" y1="1" x2="1280.5" y2="773" stroke="url(#paint24_linear_197_557)" stroke-opacity="0.24"/>
<line x1="1200.17" y1="1" x2="1200.17" y2="773" stroke="url(#paint25_linear_197_557)" stroke-opacity="0.24"/>
<line x1="1119.83" y1="1" x2="1119.83" y2="773" stroke="url(#paint26_linear_197_557)" stroke-opacity="0.24"/>
<line x1="1039.5" y1="1" x2="1039.5" y2="773" stroke="url(#paint27_linear_197_557)" stroke-opacity="0.24"/>
<line x1="961.839" y1="1" x2="961.839" y2="773" stroke="url(#paint28_linear_197_557)" stroke-opacity="0.24"/>
<line x1="881.504" y1="1" x2="881.504" y2="773" stroke="url(#paint29_linear_197_557)" stroke-opacity="0.24"/>
<line x1="801.169" y1="1" x2="801.169" y2="773" stroke="url(#paint30_linear_197_557)" stroke-opacity="0.24"/>
<line x1="720.835" y1="1" x2="720.835" y2="773" stroke="url(#paint31_linear_197_557)" stroke-opacity="0.24"/>
<line x1="1280" y1="0.5" x2="1920" y2="0.5" stroke="url(#paint32_linear_197_557)" stroke-opacity="0.24"/>
<line x1="1280" y1="111.313" x2="1920" y2="111.313" stroke="url(#paint33_linear_197_557)" stroke-opacity="0.24"/>
<line x1="1280" y1="222.126" x2="1920" y2="222.126" stroke="url(#paint34_linear_197_557)" stroke-opacity="0.24"/>
<line x1="1280" y1="332.939" x2="1920" y2="332.939" stroke="url(#paint35_linear_197_557)" stroke-opacity="0.24"/>
<line x1="1280" y1="440.059" x2="1920" y2="440.059" stroke="url(#paint36_linear_197_557)" stroke-opacity="0.24"/>
<line x1="1280" y1="550.872" x2="1920" y2="550.872" stroke="url(#paint37_linear_197_557)" stroke-opacity="0.24"/>
<line x1="1280" y1="661.686" x2="1920" y2="661.686" stroke="url(#paint38_linear_197_557)" stroke-opacity="0.24"/>
<line x1="1280" y1="772.499" x2="1920" y2="772.499" stroke="url(#paint39_linear_197_557)" stroke-opacity="0.24"/>
<line x1="1920.5" y1="1" x2="1920.5" y2="773" stroke="url(#paint40_linear_197_557)" stroke-opacity="0.24"/>
<line x1="1840.17" y1="1" x2="1840.17" y2="773" stroke="url(#paint41_linear_197_557)" stroke-opacity="0.24"/>
<line x1="1759.83" y1="1" x2="1759.83" y2="773" stroke="url(#paint42_linear_197_557)" stroke-opacity="0.24"/>
<line x1="1679.5" y1="1" x2="1679.5" y2="773" stroke="url(#paint43_linear_197_557)" stroke-opacity="0.24"/>
<line x1="1601.84" y1="1" x2="1601.84" y2="773" stroke="url(#paint44_linear_197_557)" stroke-opacity="0.24"/>
<line x1="1521.5" y1="1" x2="1521.5" y2="773" stroke="url(#paint45_linear_197_557)" stroke-opacity="0.24"/>
<line x1="1441.17" y1="1" x2="1441.17" y2="773" stroke="url(#paint46_linear_197_557)" stroke-opacity="0.24"/>
<line x1="1360.83" y1="1" x2="1360.83" y2="773" stroke="url(#paint47_linear_197_557)" stroke-opacity="0.24"/>
<rect x="241.004" y="333.733" width="80.3347" height="106.533" fill="#F1F1F1" fill-opacity="0.8"/>
<rect x="398.996" y="111.912" width="80.3347" height="110.911" fill="#F1F1F1" fill-opacity="0.8"/>
<rect x="559.665" y="333.733" width="80.3347" height="106.533" fill="#F1F1F1" fill-opacity="0.8"/>
<rect x="881.004" y="222.822" width="80.3347" height="109.452" fill="#F1F1F1" fill-opacity="0.8"/>
<rect x="1119.33" y="222.822" width="80.3347" height="109.452" fill="#F1F1F1" fill-opacity="0.8"/>
<rect x="1281.34" y="1" width="80.3347" height="110.911" fill="#F1F1F1" fill-opacity="0.8"/>
<rect x="1521" y="438.806" width="80.3347" height="112.37" fill="#F1F1F1" fill-opacity="0.8"/>
<rect x="1039" y="551.176" width="80.3347" height="110.911" fill="#F1F1F1" fill-opacity="0.8"/>
<rect x="559.665" y="662.088" width="80.3347" height="110.911" fill="#F1F1F1" fill-opacity="0.8"/>
<defs>
<linearGradient id="paint0_linear_197_557" x1="320" y1="1" x2="320" y2="2" gradientUnits="userSpaceOnUse">
<stop stop-color="#CFCFCF"/>
<stop offset="1" stop-color="#F8F8F8"/>
</linearGradient>
<linearGradient id="paint1_linear_197_557" x1="320" y1="111.813" x2="320" y2="112.813" gradientUnits="userSpaceOnUse">
<stop stop-color="#CFCFCF"/>
<stop offset="1" stop-color="#F8F8F8"/>
</linearGradient>
<linearGradient id="paint2_linear_197_557" x1="320" y1="222.626" x2="320" y2="223.626" gradientUnits="userSpaceOnUse">
<stop stop-color="#CFCFCF"/>
<stop offset="1" stop-color="#F8F8F8"/>
</linearGradient>
<linearGradient id="paint3_linear_197_557" x1="320" y1="333.439" x2="320" y2="334.439" gradientUnits="userSpaceOnUse">
<stop stop-color="#CFCFCF"/>
<stop offset="1" stop-color="#F8F8F8"/>
</linearGradient>
<linearGradient id="paint4_linear_197_557" x1="320" y1="440.559" x2="320" y2="441.559" gradientUnits="userSpaceOnUse">
<stop stop-color="#CFCFCF"/>
<stop offset="1" stop-color="#F8F8F8"/>
</linearGradient>
<linearGradient id="paint5_linear_197_557" x1="320" y1="551.372" x2="320" y2="552.372" gradientUnits="userSpaceOnUse">
<stop stop-color="#CFCFCF"/>
<stop offset="1" stop-color="#F8F8F8"/>
</linearGradient>
<linearGradient id="paint6_linear_197_557" x1="320" y1="662.186" x2="320" y2="663.186" gradientUnits="userSpaceOnUse">
<stop stop-color="#CFCFCF"/>
<stop offset="1" stop-color="#F8F8F8"/>
</linearGradient>
<linearGradient id="paint7_linear_197_557" x1="320" y1="772.999" x2="320" y2="773.999" gradientUnits="userSpaceOnUse">
<stop stop-color="#CFCFCF"/>
<stop offset="1" stop-color="#F8F8F8"/>
</linearGradient>
<linearGradient id="paint8_linear_197_557" x1="640" y1="387" x2="639" y2="387" gradientUnits="userSpaceOnUse">
<stop stop-color="#CFCFCF"/>
<stop offset="1" stop-color="#F8F8F8"/>
</linearGradient>
<linearGradient id="paint9_linear_197_557" x1="559.665" y1="387" x2="558.665" y2="387" gradientUnits="userSpaceOnUse">
<stop stop-color="#CFCFCF"/>
<stop offset="1" stop-color="#F8F8F8"/>
</linearGradient>
<linearGradient id="paint10_linear_197_557" x1="479.331" y1="387" x2="478.331" y2="387" gradientUnits="userSpaceOnUse">
<stop stop-color="#CFCFCF"/>
<stop offset="1" stop-color="#F8F8F8"/>
</linearGradient>
<linearGradient id="paint11_linear_197_557" x1="398.996" y1="387" x2="397.996" y2="387" gradientUnits="userSpaceOnUse">
<stop stop-color="#CFCFCF"/>
<stop offset="1" stop-color="#F8F8F8"/>
</linearGradient>
<linearGradient id="paint12_linear_197_557" x1="321.339" y1="387" x2="320.339" y2="387" gradientUnits="userSpaceOnUse">
<stop stop-color="#CFCFCF"/>
<stop offset="1" stop-color="#F8F8F8"/>
</linearGradient>
<linearGradient id="paint13_linear_197_557" x1="241.004" y1="387" x2="240.004" y2="387" gradientUnits="userSpaceOnUse">
<stop stop-color="#CFCFCF"/>
<stop offset="1" stop-color="#F8F8F8"/>
</linearGradient>
<linearGradient id="paint14_linear_197_557" x1="160.669" y1="387" x2="159.669" y2="387" gradientUnits="userSpaceOnUse">
<stop stop-color="#CFCFCF"/>
<stop offset="1" stop-color="#F8F8F8"/>
</linearGradient>
<linearGradient id="paint15_linear_197_557" x1="80.3349" y1="387" x2="79.3349" y2="387" gradientUnits="userSpaceOnUse">
<stop stop-color="#CFCFCF"/>
<stop offset="1" stop-color="#F8F8F8"/>
</linearGradient>
<linearGradient id="paint16_linear_197_557" x1="960" y1="1" x2="960" y2="2" gradientUnits="userSpaceOnUse">
<stop stop-color="#CFCFCF"/>
<stop offset="1" stop-color="#F8F8F8"/>
</linearGradient>
<linearGradient id="paint17_linear_197_557" x1="960" y1="111.813" x2="960" y2="112.813" gradientUnits="userSpaceOnUse">
<stop stop-color="#CFCFCF"/>
<stop offset="1" stop-color="#F8F8F8"/>
</linearGradient>
<linearGradient id="paint18_linear_197_557" x1="960" y1="222.626" x2="960" y2="223.626" gradientUnits="userSpaceOnUse">
<stop stop-color="#CFCFCF"/>
<stop offset="1" stop-color="#F8F8F8"/>
</linearGradient>
<linearGradient id="paint19_linear_197_557" x1="960" y1="333.439" x2="960" y2="334.439" gradientUnits="userSpaceOnUse">
<stop stop-color="#CFCFCF"/>
<stop offset="1" stop-color="#F8F8F8"/>
</linearGradient>
<linearGradient id="paint20_linear_197_557" x1="960" y1="440.559" x2="960" y2="441.559" gradientUnits="userSpaceOnUse">
<stop stop-color="#CFCFCF"/>
<stop offset="1" stop-color="#F8F8F8"/>
</linearGradient>
<linearGradient id="paint21_linear_197_557" x1="960" y1="551.372" x2="960" y2="552.372" gradientUnits="userSpaceOnUse">
<stop stop-color="#CFCFCF"/>
<stop offset="1" stop-color="#F8F8F8"/>
</linearGradient>
<linearGradient id="paint22_linear_197_557" x1="960" y1="662.186" x2="960" y2="663.186" gradientUnits="userSpaceOnUse">
<stop stop-color="#CFCFCF"/>
<stop offset="1" stop-color="#F8F8F8"/>
</linearGradient>
<linearGradient id="paint23_linear_197_557" x1="960" y1="772.999" x2="960" y2="773.999" gradientUnits="userSpaceOnUse">
<stop stop-color="#CFCFCF"/>
<stop offset="1" stop-color="#F8F8F8"/>
</linearGradient>
<linearGradient id="paint24_linear_197_557" x1="1280" y1="387" x2="1279" y2="387" gradientUnits="userSpaceOnUse">
<stop stop-color="#CFCFCF"/>
<stop offset="1" stop-color="#F8F8F8"/>
</linearGradient>
<linearGradient id="paint25_linear_197_557" x1="1199.67" y1="387" x2="1198.67" y2="387" gradientUnits="userSpaceOnUse">
<stop stop-color="#CFCFCF"/>
<stop offset="1" stop-color="#F8F8F8"/>
</linearGradient>
<linearGradient id="paint26_linear_197_557" x1="1119.33" y1="387" x2="1118.33" y2="387" gradientUnits="userSpaceOnUse">
<stop stop-color="#CFCFCF"/>
<stop offset="1" stop-color="#F8F8F8"/>
</linearGradient>
<linearGradient id="paint27_linear_197_557" x1="1039" y1="387" x2="1038" y2="387" gradientUnits="userSpaceOnUse">
<stop stop-color="#CFCFCF"/>
<stop offset="1" stop-color="#F8F8F8"/>
</linearGradient>
<linearGradient id="paint28_linear_197_557" x1="961.339" y1="387" x2="960.339" y2="387" gradientUnits="userSpaceOnUse">
<stop stop-color="#CFCFCF"/>
<stop offset="1" stop-color="#F8F8F8"/>
</linearGradient>
<linearGradient id="paint29_linear_197_557" x1="881.004" y1="387" x2="880.004" y2="387" gradientUnits="userSpaceOnUse">
<stop stop-color="#CFCFCF"/>
<stop offset="1" stop-color="#F8F8F8"/>
</linearGradient>
<linearGradient id="paint30_linear_197_557" x1="800.669" y1="387" x2="799.669" y2="387" gradientUnits="userSpaceOnUse">
<stop stop-color="#CFCFCF"/>
<stop offset="1" stop-color="#F8F8F8"/>
</linearGradient>
<linearGradient id="paint31_linear_197_557" x1="720.335" y1="387" x2="719.335" y2="387" gradientUnits="userSpaceOnUse">
<stop stop-color="#CFCFCF"/>
<stop offset="1" stop-color="#F8F8F8"/>
</linearGradient>
<linearGradient id="paint32_linear_197_557" x1="1600" y1="1" x2="1600" y2="2" gradientUnits="userSpaceOnUse">
<stop stop-color="#CFCFCF"/>
<stop offset="1" stop-color="#F8F8F8"/>
</linearGradient>
<linearGradient id="paint33_linear_197_557" x1="1600" y1="111.813" x2="1600" y2="112.813" gradientUnits="userSpaceOnUse">
<stop stop-color="#CFCFCF"/>
<stop offset="1" stop-color="#F8F8F8"/>
</linearGradient>
<linearGradient id="paint34_linear_197_557" x1="1600" y1="222.626" x2="1600" y2="223.626" gradientUnits="userSpaceOnUse">
<stop stop-color="#CFCFCF"/>
<stop offset="1" stop-color="#F8F8F8"/>
</linearGradient>
<linearGradient id="paint35_linear_197_557" x1="1600" y1="333.439" x2="1600" y2="334.439" gradientUnits="userSpaceOnUse">
<stop stop-color="#CFCFCF"/>
<stop offset="1" stop-color="#F8F8F8"/>
</linearGradient>
<linearGradient id="paint36_linear_197_557" x1="1600" y1="440.559" x2="1600" y2="441.559" gradientUnits="userSpaceOnUse">
<stop stop-color="#CFCFCF"/>
<stop offset="1" stop-color="#F8F8F8"/>
</linearGradient>
<linearGradient id="paint37_linear_197_557" x1="1600" y1="551.372" x2="1600" y2="552.372" gradientUnits="userSpaceOnUse">
<stop stop-color="#CFCFCF"/>
<stop offset="1" stop-color="#F8F8F8"/>
</linearGradient>
<linearGradient id="paint38_linear_197_557" x1="1600" y1="662.186" x2="1600" y2="663.186" gradientUnits="userSpaceOnUse">
<stop stop-color="#CFCFCF"/>
<stop offset="1" stop-color="#F8F8F8"/>
</linearGradient>
<linearGradient id="paint39_linear_197_557" x1="1600" y1="772.999" x2="1600" y2="773.999" gradientUnits="userSpaceOnUse">
<stop stop-color="#CFCFCF"/>
<stop offset="1" stop-color="#F8F8F8"/>
</linearGradient>
<linearGradient id="paint40_linear_197_557" x1="1920" y1="387" x2="1919" y2="387" gradientUnits="userSpaceOnUse">
<stop stop-color="#CFCFCF"/>
<stop offset="1" stop-color="#F8F8F8"/>
</linearGradient>
<linearGradient id="paint41_linear_197_557" x1="1839.67" y1="387" x2="1838.67" y2="387" gradientUnits="userSpaceOnUse">
<stop stop-color="#CFCFCF"/>
<stop offset="1" stop-color="#F8F8F8"/>
</linearGradient>
<linearGradient id="paint42_linear_197_557" x1="1759.33" y1="387" x2="1758.33" y2="387" gradientUnits="userSpaceOnUse">
<stop stop-color="#CFCFCF"/>
<stop offset="1" stop-color="#F8F8F8"/>
</linearGradient>
<linearGradient id="paint43_linear_197_557" x1="1679" y1="387" x2="1678" y2="387" gradientUnits="userSpaceOnUse">
<stop stop-color="#CFCFCF"/>
<stop offset="1" stop-color="#F8F8F8"/>
</linearGradient>
<linearGradient id="paint44_linear_197_557" x1="1601.34" y1="387" x2="1600.34" y2="387" gradientUnits="userSpaceOnUse">
<stop stop-color="#CFCFCF"/>
<stop offset="1" stop-color="#F8F8F8"/>
</linearGradient>
<linearGradient id="paint45_linear_197_557" x1="1521" y1="387" x2="1520" y2="387" gradientUnits="userSpaceOnUse">
<stop stop-color="#CFCFCF"/>
<stop offset="1" stop-color="#F8F8F8"/>
</linearGradient>
<linearGradient id="paint46_linear_197_557" x1="1440.67" y1="387" x2="1439.67" y2="387" gradientUnits="userSpaceOnUse">
<stop stop-color="#CFCFCF"/>
<stop offset="1" stop-color="#F8F8F8"/>
</linearGradient>
<linearGradient id="paint47_linear_197_557" x1="1360.33" y1="387" x2="1359.33" y2="387" gradientUnits="userSpaceOnUse">
<stop stop-color="#CFCFCF"/>
<stop offset="1" stop-color="#F8F8F8"/>
</linearGradient>
</defs>
</svg>
